<svg width="43" height="44" viewBox="0 0 43 44" fill="none" xmlns="http://www.w3.org/2000/svg">
<path d="M2.13822 43.8207C1.63622 43.8206 1.15072 43.6413 0.769052 43.3151M2.13822 43.8207H40.2537C40.7593 43.8225 41.2488 43.6431 41.6335 43.3151M2.13822 43.8207V43.5707M2.13822 43.8207L2.13827 43.5707H2.13822M0.769052 43.3151H41.6335M0.769052 43.3151C0.743027 43.2998 0.721355 43.2781 0.70603 43.2521L0.769052 43.3151ZM41.6335 43.3151L41.4714 43.1249C41.4689 43.1269 41.4665 43.129 41.464 43.1311L41.4568 43.1383L41.6335 43.3151ZM2.13822 43.5707C1.69579 43.5706 1.26788 43.4126 0.931471 43.1251L0.914803 43.1108L0.911985 43.1092L0.901358 43.0911L0.871692 43.0649C0.475968 42.7147 0.24961 42.2116 0.250089 41.6833V41.6831V17.6909H0.2501L0.250078 17.6885C0.245702 17.2205 0.424811 16.7694 0.749031 16.4319L0.75445 16.4262L0.759507 16.4203C0.890646 16.2654 1.04821 16.1349 1.22475 16.0346C1.50387 15.8822 1.81685 15.8025 2.13486 15.8027H2.13505H40.2509C40.7805 15.8129 41.2841 16.0342 41.6497 16.4175C41.9653 16.7668 42.1405 17.2206 42.1413 17.6913L2.13822 43.5707Z" fill="#F6B863" stroke="black" stroke-width="0.5"/>
<path d="M21.2069 32.397L0.959629 16.2567L20.1958 0.608263C20.1958 0.608258 20.1958 0.608254 20.1958 0.608249C20.7831 0.130588 21.6251 0.130575 22.2125 0.608264C22.2125 0.608267 22.2125 0.60827 22.2125 0.608273L41.4428 16.2491C41.4354 16.2551 41.4278 16.2613 41.4201 16.2677C41.2625 16.3965 41.0354 16.5805 40.7484 16.812C40.1744 17.2747 39.3625 17.9258 38.3921 18.7022C36.4514 20.2549 33.8777 22.3079 31.3086 24.3551C28.7396 26.4024 26.1752 28.4438 24.253 29.9734C23.292 30.7383 22.4915 31.3751 21.9313 31.8208L21.2811 32.338L21.2069 32.397Z" fill="#EAA14E" stroke="black" stroke-width="0.5"/>
<path d="M37.2308 5.45605V19.631L21.2045 32.3966L5.16895 19.6135V5.45605H37.2308Z" fill="#EEEFEE" stroke="black" stroke-width="0.5"/>
<path d="M38.0313 40.6111L23.7195 31.064L24.9751 30.0527L38.0313 40.6111Z" fill="#EAA14E" stroke="black" stroke-width="0.5"/>
<path d="M17.4162 30.0348L18.6807 31.0546L4.34518 40.6232L17.4162 30.0348Z" fill="#EAA14E" stroke="black" stroke-width="0.5"/>
<path d="M8.77637 9.27393H33.6142V9.87323H8.77637V9.27393Z" fill="#DBD8DD" stroke="black" stroke-width="0.5"/>
<path d="M8.77637 13.5142H33.6142V14.1135H8.77637V13.5142Z" fill="#DBD8DD" stroke="black" stroke-width="0.5"/>
<path d="M8.77637 17.7549H33.6142V18.3542H8.77637V17.7549Z" fill="#DBD8DD" stroke="black" stroke-width="0.5"/>
<path d="M13.0317 21.9941H29.3592V22.5934H13.0317V21.9941Z" fill="#DBD8DD" stroke="black" stroke-width="0.5"/>
</svg>
