<svg width="27" height="18" viewBox="0 0 27 18" fill="none" xmlns="http://www.w3.org/2000/svg">
<path d="M25.4691 0H1.53094C0.687519 0 0 0.684715 0 1.53094V15.7101C0 16.5563 0.687519 17.241 1.53094 17.241H25.4691C26.3125 17.241 27 16.5563 27 15.7101V1.53094C27 0.684715 26.3125 0 25.4691 0ZM20.6836 9.91396H21.1807C21.4112 9.91396 21.5982 10.1009 21.5982 10.3315C21.5982 10.5621 21.4112 10.749 21.1807 10.749H20.6836C20.4531 10.749 20.2661 10.5621 20.2661 10.3315C20.266 10.1009 20.4531 9.91396 20.6836 9.91396ZM18.889 9.91396H19.3861C19.6166 9.91396 19.8036 10.1009 19.8036 10.3315C19.8036 10.5621 19.6166 10.749 19.3861 10.749H18.889C18.6585 10.749 18.4714 10.5621 18.4714 10.3315C18.4714 10.1009 18.6585 9.91396 18.889 9.91396ZM15.0461 9.91396H15.5433C15.7738 9.91396 15.9608 10.1009 15.9608 10.3315C15.9608 10.5621 15.7738 10.749 15.5433 10.749H15.0461C14.8156 10.749 14.6286 10.5621 14.6286 10.3315C14.6286 10.1009 14.8156 9.91396 15.0461 9.91396ZM4.02534 2.37569H13.2945C13.5251 2.37569 13.712 2.56259 13.712 2.79319C13.712 3.02379 13.5251 3.2107 13.2945 3.2107H4.02534C3.79469 3.2107 3.60784 3.02379 3.60784 2.79319C3.60784 2.56259 3.79469 2.37569 4.02534 2.37569ZM8.41539 5.61696V7.76009C8.41539 8.07724 8.15829 8.33435 7.84114 8.33435H4.29456C3.97741 8.33435 3.72031 8.07724 3.72031 7.76009V5.61696C3.72031 5.29981 3.97741 5.04271 4.29456 5.04271H7.84119C8.15829 5.04271 8.41539 5.29981 8.41539 5.61696ZM4.52183 10.749H4.02455C3.79389 10.749 3.60704 10.5621 3.60704 10.3315C3.60704 10.1009 3.79395 9.91401 4.02455 9.91401H4.52183C4.75249 9.91401 4.93934 10.1009 4.93934 10.3315C4.93939 10.5622 4.75249 10.749 4.52183 10.749ZM6.31644 10.749H5.81926C5.58861 10.749 5.40176 10.5621 5.40176 10.3315C5.40176 10.1009 5.58866 9.91401 5.81926 9.91401H6.31644C6.54709 9.91401 6.73394 10.1009 6.73394 10.3315C6.734 10.5622 6.54709 10.749 6.31644 10.749ZM8.1112 10.749H7.61392C7.38327 10.749 7.19642 10.5621 7.19642 10.3315C7.19642 10.1009 7.38332 9.91401 7.61392 9.91401H8.1112C8.34186 9.91401 8.52871 10.1009 8.52871 10.3315C8.52871 10.5622 8.34181 10.749 8.1112 10.749ZM11.954 10.749H11.4567C11.226 10.749 11.0392 10.5621 11.0392 10.3315C11.0392 10.1009 11.2261 9.91401 11.4567 9.91401H11.954C12.1846 9.91401 12.3715 10.1009 12.3715 10.3315C12.3715 10.5622 12.1846 10.749 11.954 10.749ZM12.8339 10.3315C12.8339 10.1009 13.0208 9.91401 13.2514 9.91401H13.7486C13.9792 9.91401 14.1663 10.1009 14.1663 10.3315C14.1663 10.5622 13.9792 10.749 13.7486 10.749H13.2514C13.0208 10.749 12.8339 10.5622 12.8339 10.3315ZM22.9753 14.8653H17.1012C16.8707 14.8653 16.6837 14.6784 16.6837 14.4478C16.6837 14.2171 16.8707 14.0303 17.1012 14.0303H22.9753C23.2058 14.0303 23.3929 14.2172 23.3929 14.4478C23.3929 14.6784 23.2058 14.8653 22.9753 14.8653ZM22.9753 12.9595H13.7062C13.4755 12.9595 13.2887 12.7726 13.2887 12.542C13.2887 12.3114 13.4756 12.1245 13.7062 12.1245H22.9753C23.2058 12.1245 23.3929 12.3114 23.3929 12.542C23.3929 12.7726 23.2058 12.9595 22.9753 12.9595ZM22.9753 10.749H22.4782C22.2477 10.749 22.0607 10.5621 22.0607 10.3315C22.0607 10.1009 22.2477 9.91401 22.4782 9.91401H22.9753C23.2058 9.91401 23.3929 10.1009 23.3929 10.3315C23.3929 10.5622 23.2058 10.749 22.9753 10.749Z" fill="white"/>
</svg>
