<svg width="20" height="18" viewBox="0 0 20 18" fill="none" xmlns="http://www.w3.org/2000/svg">
<path fill-rule="evenodd" clip-rule="evenodd" d="M7.57539 3.06366H18.8681L12.1608 7.66174L7.59843 4.53407C7.77213 4.06895 7.77361 3.5432 7.57539 3.06366ZM19.6883 3.655L12.429 8.63151C12.2591 8.74745 12.0409 8.73839 11.883 8.62496L7.06379 5.3212C6.97249 5.40348 6.87249 5.47849 6.76387 5.54464L5.72278 6.1785C6.26974 7.94371 7.62315 10.2879 8.87838 11.6441L9.94787 11.0595C10.9035 10.5371 12.1049 10.8741 12.6494 11.8172L13.571 13.4134H18.9388C19.3627 13.4134 19.7094 13.0667 19.7094 12.6428V3.83426C19.7095 3.7726 19.7021 3.71257 19.6883 3.655Z" fill="#F3A30D"/>
<path fill-rule="evenodd" clip-rule="evenodd" d="M4.62194 5.73248L6.26796 4.73024C6.75644 4.43282 6.91858 3.79826 6.6326 3.30294L5.14658 0.729067C4.99413 0.464981 4.76338 0.295095 4.46596 0.227951C4.1685 0.160768 3.88721 0.214999 3.63604 0.387944L0.92597 2.25383C-0.364027 6.79911 5.43295 16.6395 9.87891 17.7607L12.8498 16.3467C13.1252 16.2157 13.3128 15.9991 13.4034 15.7079C13.4939 15.4168 13.4622 15.132 13.3097 14.8679L11.8237 12.2941C11.5377 11.7987 10.9071 11.6219 10.4052 11.8962L8.7143 12.8206C7.04206 11.3333 5.07383 7.9243 4.62194 5.73248Z" fill="black"/>
</svg>
