<svg width="18" height="18" viewBox="0 0 18 18" fill="none" xmlns="http://www.w3.org/2000/svg">
<path d="M9.00006 0C4.02967 0 6.10352e-05 4.0282 6.10352e-05 9C6.10352e-05 13.9718 4.02967 18 9.00006 18C13.9704 18 18.0001 13.9693 18.0001 9C18.0001 4.03066 13.9704 0 9.00006 0Z" fill="#2AD352"/>
<path d="M8.35806e-06 9.00001C-0.00202329 10.4876 0.366361 11.9523 1.07192 13.262C1.97082 13.5259 2.90293 13.6596 3.83977 13.6589C9.25032 13.6589 13.6364 9.27282 13.6364 3.86228C13.6372 2.91058 13.4994 1.96384 13.2272 1.05189C11.9261 0.35886 10.4741 -0.00244243 9 1.24263e-05C4.02962 1.24263e-05 8.35806e-06 4.02821 8.35806e-06 9.00001Z" fill="#74DA7F"/>
<path d="M14.1328 7.50875L8.72334 13.1896C8.57592 13.3443 8.3988 13.4676 8.20259 13.5522C8.00638 13.6367 7.79512 13.6808 7.58146 13.6818H7.57443C7.36196 13.6819 7.15165 13.6393 6.95598 13.5565C6.7603 13.4737 6.58327 13.3524 6.43537 13.1998L3.56486 10.2432C3.41655 10.0943 3.29928 9.91747 3.21986 9.72291C3.14044 9.52835 3.10046 9.31995 3.10223 9.10981C3.104 8.89967 3.14749 8.69197 3.23017 8.49877C3.31286 8.30558 3.43309 8.13073 3.58389 7.98437C3.7347 7.83801 3.91307 7.72306 4.10865 7.6462C4.30424 7.56933 4.51314 7.53207 4.72324 7.53659C4.93334 7.54111 5.14045 7.58731 5.33255 7.67251C5.52465 7.75772 5.69791 7.88022 5.84228 8.03293L7.56318 9.80551L11.8343 5.32027C11.9774 5.16685 12.1495 5.04333 12.3406 4.95683C12.5317 4.87034 12.7381 4.8226 12.9478 4.81637C13.1575 4.81015 13.3663 4.84556 13.5622 4.92055C13.7581 4.99555 13.9373 5.10865 14.0892 5.25331C14.2411 5.39796 14.3629 5.57131 14.4474 5.76332C14.5319 5.95532 14.5775 6.16218 14.5815 6.37192C14.5856 6.58167 14.548 6.79013 14.471 6.98526C14.394 7.1804 14.279 7.35832 14.1328 7.50875Z" fill="white"/>
</svg>
