<svg width="25" height="25" viewBox="0 0 25 25" fill="none" xmlns="http://www.w3.org/2000/svg">
<path d="M21.3389 3.66118C18.9779 1.30024 15.8389 0 12.5 0C9.16113 0 6.02212 1.30024 3.66113 3.66118C1.30024 6.02212 0 9.16113 0 12.5C0 15.8389 1.30024 18.9779 3.66113 21.3388C6.02212 23.6998 9.16113 25 12.5 25C15.8389 25 18.9779 23.6998 21.3389 21.3388C23.6998 18.9779 25 15.8389 25 12.5C25 9.16113 23.6998 6.02212 21.3389 3.66118ZM12.5 23.5352C9.23491 23.5352 6.29702 22.1093 4.2748 19.8481C5.52847 16.5245 8.7377 14.1602 12.5 14.1602C10.0729 14.1602 8.10547 12.1927 8.10547 9.76562C8.10547 7.33857 10.0729 5.37109 12.5 5.37109C14.9271 5.37109 16.8945 7.33857 16.8945 9.76562C16.8945 12.1927 14.9271 14.1602 12.5 14.1602C16.2623 14.1602 19.4715 16.5245 20.7252 19.8481C18.703 22.1093 15.7651 23.5352 12.5 23.5352Z" fill="black"/>
</svg>
