<svg width="28" height="28" viewBox="0 0 28 28" fill="none" xmlns="http://www.w3.org/2000/svg">
<path d="M14 28C21.732 28 28 21.732 28 14C28 6.26801 21.732 0 14 0C6.26801 0 0 6.26801 0 14C0 21.732 6.26801 28 14 28Z" fill="#E24C4B"/>
<path d="M27.9999 13.9999C27.9999 21.6999 21.6999 27.9999 13.9999 27.9999C9.5374 27.9999 5.59991 25.9874 3.06238 22.75C5.42487 24.675 8.48738 25.8125 11.8123 25.8125C19.5124 25.8125 25.8123 19.5125 25.8123 11.8125C25.8123 8.4875 24.6748 5.425 22.7498 3.0625C25.9874 5.59991 27.9999 9.5374 27.9999 13.9999Z" fill="#D1403F"/>
<path d="M20.3874 20.3874C19.8625 20.9124 18.9874 20.9124 18.4624 20.3874L14 15.925L9.53749 20.3874C9.01251 20.9124 8.13746 20.9124 7.61248 20.3874C7.08751 19.8625 7.08751 18.9874 7.61248 18.4624L12.075 14L7.61248 9.53749C7.08751 9.01251 7.08751 8.13746 7.61248 7.61248C8.13746 7.08751 9.01251 7.08751 9.53749 7.61248L14 12.075L18.4624 7.61248C18.9874 7.08751 19.8625 7.08751 20.3874 7.61248C20.9124 8.13746 20.9124 9.01251 20.3874 9.53749L15.925 14L20.3874 18.4624C20.9124 18.9874 20.9124 19.8624 20.3874 20.3874Z" fill="white"/>
</svg>
