<svg width="15" height="18" viewBox="0 0 15 18" fill="none" xmlns="http://www.w3.org/2000/svg">
<path d="M5.96597 14.1139C4.36845 14.1139 3.06819 12.8136 3.06819 11.2161V4.22754H1.87505C0.840706 4.22754 0 5.06812 0 6.10246V15.307C0 16.3414 0.840706 17.1821 1.87505 17.1821H10.3977C11.4321 17.1821 12.2728 16.3414 12.2728 15.307V14.1139H5.96597Z" fill="#4F4F4F"/>
<path d="M15 2.69316C15 1.65745 14.1607 0.818115 13.1251 0.818115H5.96599C4.93028 0.818115 4.09094 1.65745 4.09094 2.69316V11.2158C4.09094 12.2515 4.93028 13.0909 5.96599 13.0909H13.1251C14.1607 13.0909 15 12.2515 15 11.2158V2.69316Z" fill="#4F4F4F"/>
</svg>
