<svg width="18" height="18" viewBox="0 0 18 18" fill="none" xmlns="http://www.w3.org/2000/svg">
<path d="M15.937 2.7318C15.937 2.07575 15.4051 1.54395 14.7491 1.54395H13.9758C13.4975 1.54395 4.04198 1.54395 3.72596 1.54395C3.43645 1.54395 1.56357 1.54395 1.18789 1.54395C0.531914 1.54395 0 2.07579 0 2.7318V16.2929C0 16.6324 0.142699 16.9384 0.371109 17.1549H14.7491V17.4808H16.8298C17.341 17.4808 17.7768 17.1578 17.9443 16.7047C18.0831 16.3378 18.1322 17.0392 15.937 2.7318Z" fill="#BABABA"/>
<path d="M16.6623 16.2929V7.45958L15.9369 2.7318C15.9369 2.07575 15.405 1.54395 14.7489 1.54395C14.36 1.54395 4.99288 1.54395 4.45127 1.54395H3.72589H3.43575C2.76384 1.54395 2.98986 1.54395 1.91324 1.54395C1.25726 1.54395 0.725342 2.07575 0.725342 2.7318V16.2929C0.725342 16.6324 0.868041 16.9384 1.09645 17.1549H14.749V17.4808H15.4744C16.1304 17.4808 16.6623 16.949 16.6623 16.2929Z" fill="#A8A8A8"/>
<path d="M14.7491 1.54395C14.3334 1.54395 4.41052 1.54395 3.72596 1.54395C3.31611 1.54395 1.46499 1.54395 1.18789 1.54395C0.531914 1.54395 0 2.07579 0 2.7318V16.2929C0 16.949 0.531914 17.4808 1.18789 17.4808H14.749C15.4051 17.4808 15.9369 16.949 15.9369 16.2929V2.7318C15.937 2.07579 15.4051 1.54395 14.7491 1.54395Z" fill="#E6E6E6"/>
<path d="M0.725378 16.2929V2.7318C0.725378 2.07575 1.25729 1.54395 1.91327 1.54395C1.5044 1.54395 1.59806 1.54395 1.18789 1.54395C0.531914 1.54395 0 2.07579 0 2.7318V16.2929C0 16.949 0.531914 17.4808 1.18789 17.4808H1.91327C1.25733 17.4808 0.725378 16.949 0.725378 16.2929Z" fill="#CCCBCA"/>
<path d="M14.7491 1.54395C14.2771 1.54395 4.51364 1.54395 3.72596 1.54395C0.913569 1.54395 3.82053 1.54395 1.18789 1.54395C0.531914 1.54395 0 2.07579 0 2.7318V5.78322H15.937V2.7318C15.937 2.07579 15.4051 1.54395 14.7491 1.54395Z" fill="#EA473B"/>
<path d="M0.725378 2.7318C0.725378 2.07575 1.25729 1.54395 1.91327 1.54395C1.5044 1.54395 1.59806 1.54395 1.18789 1.54395C0.531914 1.54395 0 2.07579 0 2.7318V5.78322H0.725378V2.7318Z" fill="#D63322"/>
<path d="M12.7209 2.60596V2.85325C12.7209 3.09364 12.526 3.10714 12.2856 3.10714H12.1405C11.9002 3.10714 11.7053 3.09364 11.7053 2.85325V2.60599C11.4752 2.76659 11.3245 3.03314 11.3245 3.33506C11.3245 3.82584 11.7223 4.22367 12.2131 4.22367C13.0834 4.22364 13.4292 3.10025 12.7209 2.60596Z" fill="#414356"/>
<path d="M8.22343 2.60596V2.85325C8.22343 3.09364 8.0286 3.07086 7.7882 3.07086H7.64311C7.40274 3.07086 7.20787 3.09364 7.20787 2.85325V2.60599C6.97774 2.76659 6.82703 3.03314 6.82703 3.33506C6.82703 3.82584 7.22489 4.22367 7.71563 4.22367C8.20642 4.22367 8.60424 3.82584 8.60424 3.33506C8.60424 3.03314 8.45353 2.76655 8.22343 2.60596Z" fill="#414356"/>
<path d="M3.72592 2.60596V2.85325C3.72592 3.13351 3.46214 3.10714 3.1456 3.10714C2.90523 3.10714 2.71036 3.09364 2.71036 2.85325V2.60599C2.00137 3.10078 2.34889 4.22367 3.21812 4.22367C3.70891 4.22367 4.10673 3.82584 4.10673 3.33506C4.10673 3.03314 3.95602 2.76655 3.72592 2.60596Z" fill="#414356"/>
<path d="M12.0862 3.33503C12.0862 3.31819 12.0868 3.30152 12.0877 3.28493C11.8723 3.25881 11.7053 3.07568 11.7053 2.85321V2.60596C11.4752 2.76655 11.3245 3.03311 11.3245 3.33503C11.3245 3.82581 11.7223 4.22364 12.2131 4.22364C12.3494 4.22364 12.4785 4.19287 12.5939 4.13799C12.2937 3.99537 12.0862 3.68947 12.0862 3.33503Z" fill="#2F3242"/>
<path d="M7.58872 3.33503C7.58872 3.31819 7.58935 3.30152 7.59027 3.28493C7.37487 3.25881 7.20787 3.07568 7.20787 2.85321V2.60596C6.97774 2.76655 6.82703 3.03311 6.82703 3.33503C6.82703 3.82581 7.22489 4.22364 7.71563 4.22364C7.85194 4.22364 7.98103 4.19287 8.09648 4.13799C7.79628 3.99537 7.58872 3.68947 7.58872 3.33503Z" fill="#2F3242"/>
<path d="M3.09283 3.28493C2.87743 3.25881 2.71044 3.07568 2.71044 2.85321V2.60596C2.4803 2.76655 2.32959 3.03311 2.32959 3.33503C2.32959 3.98949 3.01317 4.4164 3.59901 4.13799C3.28071 3.98672 3.07223 3.65607 3.09283 3.28493Z" fill="#2F3242"/>
<path d="M15.937 5.7832H0V6.79876H15.937V5.7832Z" fill="#F77C79"/>
<path d="M0.725378 5.7832H0V6.79876H0.725378V5.7832Z" fill="#DD6464"/>
<path d="M3.29077 0C3.53117 0 3.72601 0.194871 3.72601 0.435234V2.85321C3.72601 3.09361 3.53117 3.28844 3.29077 3.28844H3.14568C2.90532 3.28844 2.71045 3.09361 2.71045 2.85321V0.435234C2.71045 0.194871 2.90532 0 3.14568 0H3.29077Z" fill="#585A60"/>
<path d="M7.78821 0C8.02861 0 8.22344 0.194871 8.22344 0.435234V2.85321C8.22344 3.09361 8.02861 3.28844 7.78821 3.28844H7.64312C7.40276 3.28844 7.20789 3.09361 7.20789 2.85321V0.435234C7.20789 0.194871 7.40276 0 7.64312 0H7.78821Z" fill="#585A60"/>
<path d="M12.2855 0C12.5259 0 12.7208 0.194871 12.7208 0.435234V2.85321C12.7208 3.09361 12.5259 3.28844 12.2855 3.28844H12.1404C11.9001 3.28844 11.7052 3.09361 11.7052 2.85321V0.435234C11.7052 0.194871 11.9001 0 12.1404 0H12.2855Z" fill="#585A60"/>
<path d="M3.29077 0C3.53117 0 3.72601 0.194871 3.72601 0.435234V2.85321C3.72601 3.09361 3.53117 3.28844 3.29077 3.28844H3.14568C2.90532 3.28844 2.71045 3.09361 2.71045 2.85321V0.435234C2.71045 0.194871 2.90532 0 3.14568 0H3.29077Z" fill="#585A60"/>
<path d="M7.78821 0C8.02861 0 8.22344 0.194871 8.22344 0.435234V2.85321C8.22344 3.09361 8.02861 3.28844 7.78821 3.28844H7.64312C7.40276 3.28844 7.20789 3.09361 7.20789 2.85321V0.435234C7.20789 0.194871 7.40276 0 7.64312 0H7.78821Z" fill="#585A60"/>
<path d="M12.2855 0C12.5259 0 12.7208 0.194871 12.7208 0.435234V2.85321C12.7208 3.09361 12.5259 3.28844 12.2855 3.28844H12.1404C11.9001 3.28844 11.7052 3.09361 11.7052 2.85321V0.435234C11.7052 0.194871 11.9001 0 12.1404 0H12.2855Z" fill="#585A60"/>
<path d="M3.21821 2.85321V0.435234C3.21821 0.259664 3.32241 0.108773 3.47211 0.0399375C3.41684 0.0145547 3.35557 0 3.29077 0H3.14568C2.90532 0 2.71045 0.194871 2.71045 0.435234V2.85321C2.71045 3.09361 2.90532 3.28844 3.14568 3.28844H3.29077C3.3556 3.28844 3.41688 3.27389 3.47211 3.2485C3.32241 3.1797 3.21821 3.02878 3.21821 2.85321Z" fill="#414356"/>
<path d="M7.71565 2.85321V0.435234C7.71565 0.259664 7.81985 0.108773 7.96955 0.0399375C7.91428 0.0145547 7.853 0 7.78821 0H7.64312C7.40276 0 7.20789 0.194871 7.20789 0.435234V2.85321C7.20789 3.09361 7.40276 3.28844 7.64312 3.28844H7.78821C7.85304 3.28844 7.91432 3.27389 7.96955 3.2485C7.81985 3.1797 7.71565 3.02878 7.71565 2.85321Z" fill="#414356"/>
<path d="M12.213 2.85321V0.435234C12.213 0.259664 12.3172 0.108773 12.4669 0.0399375C12.4116 0.0145547 12.3503 0 12.2855 0H12.1404C11.9001 0 11.7052 0.194871 11.7052 0.435234V2.85321C11.7052 3.09361 11.9001 3.28844 12.1404 3.28844H12.2855C12.3504 3.28844 12.4116 3.27389 12.4669 3.2485C12.3172 3.1797 12.213 3.02878 12.213 2.85321Z" fill="#414356"/>
<path d="M5.92762 8.46533H5.03205C4.88183 8.46533 4.76001 8.58711 4.76001 8.73737C4.76001 8.88759 4.88183 9.00941 5.03205 9.00941H5.92762C6.07788 9.00941 6.19966 8.88763 6.19966 8.73737C6.19966 8.58715 6.07788 8.46533 5.92762 8.46533Z" fill="#585A60"/>
<path d="M8.41735 8.46533H7.52167C7.37145 8.46533 7.24963 8.58711 7.24963 8.73737C7.24963 8.88759 7.37145 9.00941 7.52167 9.00941H8.41735C8.56761 9.00941 8.68939 8.88763 8.68939 8.73737C8.68935 8.58715 8.56761 8.46533 8.41735 8.46533Z" fill="#585A60"/>
<path d="M10.9071 8.46533H10.0114C9.8612 8.46533 9.73938 8.58711 9.73938 8.73737C9.73938 8.88759 9.8612 9.00941 10.0114 9.00941H10.9071C11.0574 9.00941 11.1792 8.88763 11.1792 8.73737C11.1792 8.58715 11.0574 8.46533 10.9071 8.46533Z" fill="#585A60"/>
<path d="M13.3968 8.46533H12.5012C12.3509 8.46533 12.2291 8.58711 12.2291 8.73737C12.2291 8.88759 12.3509 9.00941 12.5012 9.00941H13.3968C13.5471 9.00941 13.6689 8.88763 13.6689 8.73737C13.6688 8.58715 13.5471 8.46533 13.3968 8.46533Z" fill="#585A60"/>
<path d="M3.43786 10.6572H2.54218C2.39196 10.6572 2.27014 10.779 2.27014 10.9293C2.27014 11.0795 2.39196 11.2013 2.54218 11.2013H3.43786C3.58811 11.2013 3.70989 11.0795 3.70989 10.9293C3.70986 10.779 3.58811 10.6572 3.43786 10.6572Z" fill="#585A60"/>
<path d="M5.92762 10.6572H5.03205C4.88183 10.6572 4.76001 10.779 4.76001 10.9293C4.76001 11.0795 4.88183 11.2013 5.03205 11.2013H5.92762C6.07788 11.2013 6.19966 11.0795 6.19966 10.9293C6.19966 10.779 6.07788 10.6572 5.92762 10.6572Z" fill="#585A60"/>
<path d="M8.41735 10.6572H7.52167C7.37145 10.6572 7.24963 10.779 7.24963 10.9293C7.24963 11.0795 7.37145 11.2013 7.52167 11.2013H8.41735C8.56761 11.2013 8.68939 11.0795 8.68939 10.9293C8.68935 10.779 8.56761 10.6572 8.41735 10.6572Z" fill="#585A60"/>
<path d="M10.9071 10.6572H10.0114C9.8612 10.6572 9.73938 10.779 9.73938 10.9293C9.73938 11.0795 9.8612 11.2013 10.0114 11.2013H10.9071C11.0574 11.2013 11.1792 11.0795 11.1792 10.9293C11.1792 10.779 11.0574 10.6572 10.9071 10.6572Z" fill="#585A60"/>
<path d="M13.3968 10.6572H12.5012C12.3509 10.6572 12.2291 10.779 12.2291 10.9293C12.2291 11.0795 12.3509 11.2013 12.5012 11.2013H13.3968C13.5471 11.2013 13.6689 11.0795 13.6689 10.9293C13.6688 10.779 13.5471 10.6572 13.3968 10.6572Z" fill="#585A60"/>
<path d="M3.43786 12.8486H2.54218C2.39196 12.8486 2.27014 12.9704 2.27014 13.1207C2.27014 13.2709 2.39196 13.3927 2.54218 13.3927H3.43786C3.58811 13.3927 3.70989 13.2709 3.70989 13.1207C3.70989 12.9704 3.58811 12.8486 3.43786 12.8486Z" fill="#585A60"/>
<path d="M5.92762 12.8486H5.03205C4.88183 12.8486 4.76001 12.9704 4.76001 13.1207C4.76001 13.2709 4.88183 13.3927 5.03205 13.3927H5.92762C6.07788 13.3927 6.19966 13.2709 6.19966 13.1207C6.19966 12.9704 6.07788 12.8486 5.92762 12.8486Z" fill="#585A60"/>
<path d="M8.41735 12.8486H7.52167C7.37145 12.8486 7.24963 12.9704 7.24963 13.1207C7.24963 13.2709 7.37145 13.3927 7.52167 13.3927H8.41735C8.56761 13.3927 8.68939 13.2709 8.68939 13.1207C8.68939 12.9704 8.56761 12.8486 8.41735 12.8486Z" fill="#585A60"/>
<path d="M10.9071 12.8486H10.0114C9.8612 12.8486 9.73938 12.9704 9.73938 13.1207C9.73938 13.2709 9.8612 13.3927 10.0114 13.3927H10.9071C11.0574 13.3927 11.1792 13.2709 11.1792 13.1207C11.1792 12.9704 11.0574 12.8486 10.9071 12.8486Z" fill="#585A60"/>
<path d="M13.3968 12.8486H12.5012C12.3509 12.8486 12.2291 12.9704 12.2291 13.1207C12.2291 13.2709 12.3509 13.3927 12.5012 13.3927H13.3968C13.5471 13.3927 13.6689 13.2709 13.6689 13.1207C13.6689 12.9704 13.5471 12.8486 13.3968 12.8486Z" fill="#585A60"/>
<path d="M3.43786 15.0405H2.54218C2.39196 15.0405 2.27014 15.1623 2.27014 15.3126C2.27014 15.4628 2.39196 15.5846 2.54218 15.5846H3.43786C3.58811 15.5846 3.70989 15.4628 3.70989 15.3126C3.70986 15.1623 3.58811 15.0405 3.43786 15.0405Z" fill="#585A60"/>
<path d="M5.92762 15.0405H5.03205C4.88183 15.0405 4.76001 15.1623 4.76001 15.3126C4.76001 15.4628 4.88183 15.5846 5.03205 15.5846H5.92762C6.07788 15.5846 6.19966 15.4628 6.19966 15.3126C6.19966 15.1623 6.07788 15.0405 5.92762 15.0405Z" fill="#585A60"/>
<path d="M8.41735 15.0405H7.52167C7.37145 15.0405 7.24963 15.1623 7.24963 15.3126C7.24963 15.4628 7.37145 15.5846 7.52167 15.5846H8.41735C8.56761 15.5846 8.68939 15.4628 8.68939 15.3126C8.68935 15.1623 8.56761 15.0405 8.41735 15.0405Z" fill="#585A60"/>
<path d="M10.9071 15.0405H10.0114C9.8612 15.0405 9.73938 15.1623 9.73938 15.3126C9.73938 15.4628 9.8612 15.5846 10.0114 15.5846H10.9071C11.0574 15.5846 11.1792 15.4628 11.1792 15.3126C11.1792 15.1623 11.0574 15.0405 10.9071 15.0405Z" fill="#585A60"/>
</svg>
