<svg width="14" height="14" viewBox="0 0 14 14" fill="none" xmlns="http://www.w3.org/2000/svg">
<path d="M9.8001 4.66667C8.96942 4.66667 8.15739 4.913 7.4667 5.3745C6.77602 5.836 6.23769 6.49195 5.91981 7.2594C5.60192 8.02685 5.51874 8.87133 5.6808 9.68605C5.84286 10.5008 6.24287 11.2491 6.83025 11.8365C7.41763 12.4239 8.166 12.8239 8.98072 12.986C9.79544 13.148 10.6399 13.0649 11.4074 12.747C12.1748 12.4291 12.8308 11.8908 13.2923 11.2001C13.7538 10.5094 14.0001 9.69735 14.0001 8.86667C14.0001 7.75276 13.5576 6.68448 12.7699 5.89682C11.9823 5.10917 10.914 4.66667 9.8001 4.66667ZM8.98343 6.53334H9.91677V7.51801H8.98343V6.53334ZM10.9668 11.2H8.63343V10.2667H9.33343V9.12334H8.63343V8.19H9.8001C9.92387 8.19 10.0426 8.23917 10.1301 8.32669C10.2176 8.41421 10.2668 8.5329 10.2668 8.65667V10.2667H10.9668V11.2Z" fill="#F3B849"/>
<path d="M5.502 11.6667H1.86667V10.7333H5.02133C4.78872 10.1384 4.66846 9.50547 4.66667 8.86667H1.86667V7.93333H4.75533C4.95912 6.83343 5.51661 5.83019 6.34298 5.07626C7.16936 4.32233 8.2194 3.85896 9.33333 3.75667V0.933333C9.33333 0.685798 9.235 0.448401 9.05997 0.273367C8.88493 0.0983331 8.64754 0 8.4 0H3.26667L3.70533 1.32067C3.78964 1.57242 3.81291 1.8406 3.77322 2.10311C3.73353 2.36562 3.63203 2.61494 3.47707 2.83051C3.32211 3.04609 3.11813 3.22175 2.88195 3.34302C2.64578 3.46429 2.38416 3.52769 2.11867 3.528L1.86667 3.514L0 3.26667V13.0667C0 13.3142 0.0983331 13.5516 0.273367 13.7266C0.448401 13.9017 0.685798 14 0.933333 14H8.4C8.54258 13.9991 8.68306 13.9656 8.81067 13.902C8.13781 13.7693 7.49836 13.5032 6.93008 13.1192C6.3618 12.7353 5.87622 12.2414 5.502 11.6667ZM5.13333 1.86667H7.46667V2.8H5.13333V1.86667ZM1.86667 5.13333H4.66667V6.06667H1.86667V5.13333Z" fill="black"/>
<path d="M2.6646 2.33334C2.74813 2.23589 2.80459 2.11822 2.82834 1.9921C2.8521 1.86597 2.8423 1.73582 2.79994 1.61467L2.33327 0.261337L0.275269 2.33334L1.9926 2.58067C2.11633 2.59819 2.24247 2.58477 2.35974 2.54161C2.47701 2.49845 2.58176 2.42689 2.6646 2.33334Z" fill="black"/>
</svg>
