<svg width="43" height="43" viewBox="0 0 43 43" fill="none" xmlns="http://www.w3.org/2000/svg">
<path d="M43 21.5C43 33.3741 33.3741 43 21.5 43C15.2404 43 9.60567 40.3252 5.67688 36.0559C4.64488 34.9353 3.73135 33.7041 2.95384 32.3834C1.07676 29.1909 0 25.4709 0 21.5C0 9.62586 9.62586 0 21.5 0C25.4718 0 29.1917 1.07675 32.3834 2.95471C33.7041 3.73135 34.9344 4.64488 36.0551 5.67775C40.3243 9.60479 43 15.2404 43 21.5Z" fill="#F0CD00"/>
<path d="M42.9999 21.5002C42.9999 33.1067 33.8041 42.5649 22.3003 42.9853C10.7964 42.5649 1.60059 33.1067 1.60059 21.5002C1.60059 9.89373 10.7964 0.435484 22.3003 0.0151367C33.8041 0.435484 42.9999 9.89373 42.9999 21.5002Z" fill="#FFDE50"/>
<path d="M36.0548 5.67763L5.67665 36.0558C4.64465 34.9352 3.73112 33.704 2.95361 32.3833L32.3832 2.95459C33.7039 3.73122 34.9342 4.64475 36.0548 5.67763Z" fill="#FFEA94"/>
<path d="M41.5168 13.6396L13.6388 41.5177C11.6651 40.7419 9.8337 39.6827 8.19531 38.3901L38.3901 8.19531C39.6827 9.8337 40.7419 11.6651 41.5168 13.6396Z" fill="#FFEA94"/>
<path d="M38.2066 21.4998C38.2066 30.7264 30.7264 38.2066 21.4998 38.2066C18.2862 38.2066 15.285 37.2992 12.7374 35.7266C11.6273 35.0422 10.6041 34.2304 9.68619 33.3125C9.01136 32.6385 8.39356 31.9058 7.84158 31.1239C7.08162 30.0471 6.4454 28.8765 5.95485 27.633C5.22823 25.7945 4.8193 23.7955 4.79472 21.7051C4.79297 21.6367 4.79297 21.5682 4.79297 21.4998C4.79297 12.2732 12.2723 4.79297 21.4998 4.79297C21.5682 4.79297 21.6376 4.79297 21.706 4.79472C23.7963 4.8193 25.7945 5.22911 27.633 5.95485C28.8765 6.44627 30.0471 7.08162 31.1239 7.84158C31.9058 8.39444 32.6377 9.01136 33.3125 9.68619C34.2304 10.6032 35.0422 11.6273 35.7266 12.7374C37.2992 15.285 38.2066 18.2862 38.2066 21.4998Z" fill="#FAA300"/>
<path d="M33.3125 9.68619L9.68619 33.3125C9.01136 32.6385 8.39356 31.9058 7.84158 31.1239C7.08162 30.0471 6.4454 28.8765 5.95485 27.633C5.22823 25.7945 4.8193 23.7955 4.79472 21.7051C4.79297 21.6367 4.79297 21.5682 4.79297 21.4998C4.79297 12.2732 12.2723 4.79297 21.4998 4.79297C21.5682 4.79297 21.6376 4.79297 21.706 4.79472C23.7963 4.8193 25.7945 5.22911 27.633 5.95485C28.8765 6.44627 30.0471 7.08162 31.1239 7.84158C31.9058 8.39444 32.6377 9.01136 33.3125 9.68619Z" fill="#FFBD00"/>
<path d="M38.2063 21.4998C38.2063 30.7264 30.7261 38.2066 21.4995 38.2066C21.1827 38.2066 20.8686 38.1978 20.5562 38.1803C29.3439 37.6915 36.3187 30.4096 36.3187 21.4998C36.3187 12.59 29.3439 5.30809 20.5562 4.8193C20.8686 4.80174 21.1827 4.79297 21.4995 4.79297C30.7261 4.79297 38.2063 12.2732 38.2063 21.4998Z" fill="#F68E00"/>
<path d="M20.9497 20.216V13.45C22.0042 14.0317 22.7203 15.1545 22.7203 16.4416C22.7203 17.3495 23.4563 18.0855 24.3642 18.0855C25.2721 18.0855 26.0081 17.3495 26.0081 16.4416C26.0081 13.313 23.8531 10.6788 20.9497 9.94392V8.60583C20.9497 7.69792 20.2137 6.96191 19.3058 6.96191C18.3979 6.96191 17.6619 7.69792 17.6619 8.60583V9.94383C14.7585 10.6788 12.6035 13.3129 12.6035 16.4415C12.6035 18.3095 13.1522 19.7663 14.2808 20.8949C15.1037 21.7178 16.1967 22.3267 17.6619 22.7731V29.5497C16.6074 28.968 15.8913 27.8453 15.8913 26.5582C15.8913 25.6503 15.1553 24.9143 14.2474 24.9143C13.3395 24.9143 12.6035 25.6503 12.6035 26.5582C12.6035 29.6868 14.7585 32.3209 17.6619 33.0559V34.3939C17.6619 35.3018 18.3979 36.0378 19.3058 36.0378C20.2137 36.0378 20.9497 35.3018 20.9497 34.3939V33.0559C23.8531 32.3209 26.0081 29.6869 26.0081 26.5582C26.0081 24.7161 25.4359 23.2099 24.3076 22.0816C23.4875 21.2614 22.3808 20.6466 20.9497 20.216ZM16.6057 18.5701C16.2731 18.2376 15.8914 17.6951 15.8914 16.4415C15.8914 15.1544 16.6075 14.0317 17.662 13.4499V19.2695C17.2186 19.0641 16.8675 18.832 16.6057 18.5701ZM20.9497 29.5497V23.7122C22.3785 24.3775 22.7203 25.3294 22.7203 26.5582C22.7203 27.8453 22.0042 28.968 20.9497 29.5497Z" fill="#F68E00"/>
<path d="M23.1436 20.216V13.45C24.198 14.0317 24.9141 15.1545 24.9141 16.4416C24.9141 17.3495 25.6501 18.0855 26.558 18.0855C27.466 18.0855 28.202 17.3495 28.202 16.4416C28.202 13.313 26.047 10.6788 23.1436 9.94392V8.60583C23.1436 7.69792 22.4076 6.96191 21.4997 6.96191C20.5917 6.96191 19.8557 7.69792 19.8557 8.60583V9.94383C16.9524 10.6788 14.7974 13.3129 14.7974 16.4415C14.7974 18.3095 15.346 19.7663 16.4746 20.8949C17.2975 21.7178 18.3906 22.3267 19.8557 22.7731V29.5497C18.8013 28.968 18.0852 27.8453 18.0852 26.5582C18.0852 25.6503 17.3492 24.9143 16.4413 24.9143C15.5334 24.9143 14.7974 25.6503 14.7974 26.5582C14.7974 29.6868 16.9524 32.3209 19.8557 33.0559V34.3939C19.8557 35.3018 20.5917 36.0378 21.4997 36.0378C22.4076 36.0378 23.1436 35.3018 23.1436 34.3939V33.0559C26.047 32.3209 28.202 29.6869 28.202 26.5582C28.202 24.7161 27.6298 23.2099 26.5014 22.0816C25.6814 21.2614 24.5746 20.6466 23.1436 20.216ZM18.7994 18.5701C18.4668 18.2376 18.0852 17.6951 18.0852 16.4415C18.0852 15.1544 18.8013 14.0317 19.8557 13.4499V19.2695C19.4124 19.0641 19.0614 18.832 18.7994 18.5701ZM23.1436 29.5497V23.7122C24.5723 24.3775 24.9141 25.3294 24.9141 26.5582C24.914 27.8453 24.198 28.968 23.1436 29.5497Z" fill="#FFEA94"/>
</svg>
