<svg width="18" height="18" viewBox="0 0 18 18" fill="none" xmlns="http://www.w3.org/2000/svg">
<path d="M9 18C13.9706 18 18 13.9706 18 9C18 4.02944 13.9706 0 9 0C4.02944 0 0 4.02944 0 9C0 13.9706 4.02944 18 9 18Z" fill="#E24C4B"/>
<path d="M18 8.99996C18 13.95 13.95 18 8.99996 18C6.13123 18 3.59999 16.7062 1.96872 14.625C3.48747 15.8625 5.45622 16.5937 7.5937 16.5937C12.5437 16.5937 16.5937 12.5437 16.5937 7.59373C16.5937 5.45625 15.8624 3.4875 14.6249 1.96875C16.7062 3.59994 18 6.13118 18 8.99996Z" fill="#D1403F"/>
<path d="M13.1062 13.1062C12.7687 13.4437 12.2062 13.4437 11.8687 13.1062L9 10.2375L6.13127 13.1062C5.79379 13.4437 5.23126 13.4437 4.89377 13.1062C4.55628 12.7687 4.55628 12.2062 4.89377 11.8687L7.7625 8.99997L4.89377 6.13124C4.55628 5.79376 4.55628 5.23123 4.89377 4.89374C5.23126 4.55625 5.79379 4.55625 6.13127 4.89374L9 7.76247L11.8687 4.89374C12.2062 4.55625 12.7687 4.55625 13.1062 4.89374C13.4437 5.23123 13.4437 5.79376 13.1062 6.13124L10.2375 8.99997L13.1062 11.8687C13.4437 12.2062 13.4437 12.7687 13.1062 13.1062Z" fill="white"/>
</svg>
