<svg width="20" height="20" viewBox="0 0 20 20" fill="none" xmlns="http://www.w3.org/2000/svg">
<path d="M18.1273 2.6552C15.6347 0.16246 11.5786 0.16246 9.08557 2.6552L1.33525 10.4055C-0.445181 12.1861 -0.445064 15.0833 1.33548 16.8638C2.22584 17.7542 3.39498 18.1994 4.56459 18.1992C5.73389 18.1991 6.90366 17.7541 7.79385 16.8638L14.8981 9.75942C15.4157 9.24192 15.7007 8.55384 15.7008 7.82196C15.7008 7.09005 15.4159 6.402 14.8982 5.88434C13.8298 4.81602 12.0913 4.81606 11.0231 5.88454L6.37721 10.5303C6.02053 10.887 6.02053 11.4653 6.37713 11.822C6.73377 12.1788 7.31209 12.1786 7.66881 11.822L12.3148 7.17618C12.6709 6.82005 13.2503 6.81997 13.6064 7.1761C13.7789 7.3486 13.874 7.57798 13.874 7.82192C13.874 8.06587 13.779 8.29516 13.6064 8.46774L6.50217 15.5721C5.43377 16.6404 3.69549 16.6406 2.62717 15.5722C1.55884 14.5038 1.55877 12.7654 2.62697 11.697L10.3773 3.94688C12.158 2.16625 15.0552 2.16625 16.8356 3.94688C17.6982 4.80938 18.1733 5.95622 18.1733 7.17602C18.1733 8.39583 17.6982 9.54267 16.8356 10.4052L9.08546 18.1556C8.72881 18.5123 8.72881 19.0906 9.08553 19.4473C9.26389 19.6257 9.49764 19.7148 9.73135 19.7148C9.96511 19.7148 10.1989 19.6256 10.3772 19.4473L18.1273 11.697C19.3349 10.4894 20 8.88388 20 7.17606C20 5.46829 19.3349 3.86274 18.1273 2.6552Z" fill="black"/>
</svg>
