<svg width="29" height="22" viewBox="0 0 29 22" fill="none" xmlns="http://www.w3.org/2000/svg">
<path fill-rule="evenodd" clip-rule="evenodd" d="M2.25321 8.73813H26.1013C26.6311 8.73813 27.1392 8.97644 27.5139 9.40062C27.8885 9.82479 28.099 10.4001 28.099 11C28.099 11.5999 27.8885 12.1752 27.5139 12.5994C27.1392 13.0235 26.6311 13.2618 26.1013 13.2618H2.25321C1.7234 13.2618 1.21529 13.0235 0.840654 12.5994C0.466021 12.1752 0.255554 11.5999 0.255554 11C0.255554 10.4001 0.466021 9.82479 0.840654 9.40062C1.21529 8.97644 1.7234 8.73813 2.25321 8.73813ZM26.1013 10.6932H2.25321C2.18134 10.6932 2.11241 10.7255 2.06159 10.7831C2.01077 10.8406 1.98222 10.9187 1.98222 11C1.98222 11.0814 2.01077 11.1595 2.06159 11.217C2.11241 11.2745 2.18134 11.3069 2.25321 11.3069H26.1013C26.1732 11.3069 26.2421 11.2745 26.2929 11.217C26.3437 11.1595 26.3723 11.0814 26.3723 11C26.3723 10.9187 26.3437 10.8406 26.2929 10.7831C26.2421 10.7255 26.1732 10.6932 26.1013 10.6932ZM2.25321 0H26.1013C26.6293 0.00310719 27.1348 0.242782 27.5072 0.66663C27.8796 1.09048 28.0886 1.66402 28.0886 2.26188C28.0886 2.85974 27.8796 3.43329 27.5072 3.85713C27.1348 4.28098 26.6293 4.52066 26.1013 4.52376H2.25321C1.72519 4.52066 1.21973 4.28098 0.847332 3.85713C0.474932 3.43329 0.265883 2.85974 0.265883 2.26188C0.265883 1.66402 0.474932 1.09048 0.847332 0.66663C1.21973 0.242782 1.72519 0.00310719 2.25321 0ZM26.1013 1.95509H2.25321C2.18201 1.95622 2.11407 1.98905 2.06407 2.04646C2.01407 2.10387 1.98605 2.18126 1.98605 2.26188C1.98605 2.34251 2.01407 2.41989 2.06407 2.4773C2.11407 2.53472 2.18201 2.56754 2.25321 2.56868H26.1013C26.1725 2.56754 26.2404 2.53472 26.2904 2.4773C26.3404 2.41989 26.3685 2.34251 26.3685 2.26188C26.3685 2.18126 26.3404 2.10387 26.2904 2.04646C26.2404 1.98905 26.1725 1.95622 26.1013 1.95509ZM2.25321 17.4762H26.1013C26.6293 17.4793 27.1348 17.719 27.5072 18.1428C27.8796 18.5667 28.0886 19.1402 28.0886 19.7381C28.0886 20.336 27.8796 20.9095 27.5072 21.3333C27.1348 21.7572 26.6293 21.9969 26.1013 22H2.25321C1.72519 21.9969 1.21973 21.7572 0.847332 21.3333C0.474932 20.9095 0.265883 20.336 0.265883 19.7381C0.265883 19.1402 0.474932 18.5667 0.847332 18.1428C1.21973 17.719 1.72519 17.4793 2.25321 17.4762ZM26.1013 19.4313H2.25321C2.18201 19.4324 2.11407 19.4653 2.06407 19.5227C2.01407 19.5801 1.98605 19.6575 1.98605 19.7381C1.98605 19.8187 2.01407 19.8961 2.06407 19.9535C2.11407 20.0109 2.18201 20.0437 2.25321 20.0449H26.1013C26.1725 20.0437 26.2404 20.0109 26.2904 19.9535C26.3404 19.8961 26.3685 19.8187 26.3685 19.7381C26.3685 19.6575 26.3404 19.5801 26.2904 19.5227C26.2404 19.4653 26.1725 19.4324 26.1013 19.4313ZM2.25321 2.56868H26.1013C26.1725 2.56754 26.2404 2.53472 26.2904 2.4773C26.3404 2.41989 26.3685 2.34251 26.3685 2.26188C26.3685 2.18126 26.3404 2.10387 26.2904 2.04646C26.2404 1.98905 26.1725 1.95622 26.1013 1.95509H2.25321C2.18201 1.95622 2.11407 1.98905 2.06407 2.04646C2.01407 2.10387 1.98605 2.18126 1.98605 2.26188C1.98605 2.34251 2.01407 2.41989 2.06407 2.4773C2.11407 2.53472 2.18201 2.56754 2.25321 2.56868ZM26.1013 10.6932H2.25321C2.18134 10.6932 2.11241 10.7255 2.06159 10.7831C2.01077 10.8406 1.98222 10.9186 1.98222 11C1.98222 11.0814 2.01077 11.1594 2.06159 11.2169C2.11241 11.2745 2.18134 11.3068 2.25321 11.3068H26.1013C26.1732 11.3068 26.2421 11.2745 26.2929 11.2169C26.3437 11.1594 26.3723 11.0814 26.3723 11C26.3723 10.9186 26.3437 10.8406 26.2929 10.7831C26.2421 10.7255 26.1732 10.6932 26.1013 10.6932ZM26.1013 19.4313H2.25321C2.18201 19.4324 2.11407 19.4653 2.06407 19.5227C2.01407 19.5801 1.98605 19.6575 1.98605 19.7381C1.98605 19.8187 2.01407 19.8961 2.06407 19.9535C2.11407 20.0109 2.18201 20.0437 2.25321 20.0449H26.1013C26.1725 20.0437 26.2404 20.0109 26.2904 19.9535C26.3404 19.8961 26.3685 19.8187 26.3685 19.7381C26.3685 19.6575 26.3404 19.5801 26.2904 19.5227C26.2404 19.4653 26.1725 19.4324 26.1013 19.4313Z" fill="#333333"/>
</svg>
