<svg width="36" height="30" viewBox="0 0 36 30" fill="none" xmlns="http://www.w3.org/2000/svg">
<path d="M25.0001 12.4998V16.1288C24.9995 16.3425 24.9143 16.5473 24.7632 16.6984C24.6121 16.8495 24.4074 16.9347 24.1937 16.9353H18.5485C18.3348 16.9347 18.1301 16.8495 17.979 16.6984C17.8279 16.5473 17.7427 16.3425 17.7421 16.1288V13.7095C17.7427 13.4958 17.8279 13.291 17.979 13.1399C18.1301 12.9888 18.3348 12.9037 18.5485 12.903H23.3872V11.6934H24.1937C24.4074 11.694 24.6121 11.7792 24.7632 11.9303C24.9143 12.0814 24.9995 12.2861 25.0001 12.4998ZM20.5646 14.9192C20.5646 14.7597 20.5173 14.6037 20.4287 14.4711C20.3401 14.3385 20.2142 14.2351 20.0668 14.1741C19.9194 14.1131 19.7573 14.0971 19.6009 14.1282C19.4444 14.1593 19.3007 14.2361 19.1879 14.3489C19.0752 14.4617 18.9984 14.6054 18.9672 14.7618C18.9361 14.9183 18.9521 15.0804 19.0131 15.2278C19.0742 15.3751 19.1775 15.5011 19.3102 15.5897C19.4428 15.6783 19.5987 15.7256 19.7582 15.7256C19.9719 15.725 20.1766 15.6398 20.3277 15.4887C20.4788 15.3376 20.564 15.1329 20.5646 14.9192Z" fill="#E03E3E"/>
<path d="M21.629 0L25 9.58871L23.3871 10.1653V7.66129C23.3865 7.4476 23.3013 7.24285 23.1502 7.09174C22.9991 6.94064 22.7943 6.85547 22.5807 6.85484H21.9153L20.7782 3.62097C20.5853 3.68972 20.3806 3.71963 20.1761 3.70896C19.9715 3.69829 19.771 3.64727 19.5863 3.55882C19.4015 3.47037 19.2361 3.34625 19.0995 3.19359C18.9629 3.04094 18.8578 2.86277 18.7903 2.66935L7.04841 6.83871V6.85484H3.62906C3.5291 6.85496 3.4293 6.84687 3.33067 6.83064L3.22583 6.54032L16.9516 1.66129L21.629 0Z" fill="#36CE94"/>
<path d="M1.65323 5.23028C1.73338 5.63762 1.93764 6.01017 2.23798 6.29679C2.53831 6.58341 2.92 6.77005 3.33064 6.83108C3.42928 6.84731 3.52907 6.8554 3.62903 6.85528H22.5806C22.7943 6.85592 22.9991 6.94109 23.1502 7.09219C23.3013 7.24329 23.3864 7.44804 23.3871 7.66173V12.9037H18.5484C18.3347 12.9043 18.1299 12.9895 17.9788 13.1406C17.8277 13.2917 17.7426 13.4964 17.7419 13.7101V16.1295C17.7426 16.3432 17.8277 16.5479 17.9788 16.699C18.1299 16.8501 18.3347 16.9353 18.5484 16.9359H23.3871V21.3714C23.3871 21.8593 22.6653 22.5811 21.7742 22.5811H16.129V16.1295C16.1284 15.9158 16.0432 15.711 15.8921 15.5599C15.741 15.4088 15.5363 15.3237 15.3226 15.323H2.41935C2.20567 15.3237 2.00091 15.4088 1.84981 15.5599C1.69871 15.711 1.61354 15.9158 1.6129 16.1295V22.5811C1.18513 22.5811 0.774886 22.4111 0.472408 22.1087C0.16993 21.8062 0 21.3959 0 20.9682V5.24237C0 4.60072 0.254895 3.98535 0.708612 3.53163C1.16233 3.07792 1.7777 2.82302 2.41935 2.82302H3.71371C3.20205 2.81482 2.7054 2.99594 2.31914 3.33159C1.93287 3.66725 1.68423 4.13377 1.62097 4.64157C1.60105 4.83829 1.61194 5.03691 1.65323 5.23028Z" fill="#FEBD55"/>
<path d="M20.7782 3.62105L21.9153 6.85492H7.04834V6.83879L18.7903 2.66943C18.8577 2.86285 18.9628 3.04102 19.0994 3.19367C19.236 3.34633 19.4014 3.47045 19.5862 3.5589C19.771 3.64735 19.9714 3.69837 20.176 3.70904C20.3805 3.71971 20.5852 3.6898 20.7782 3.62105Z" fill="#2FB380"/>
<path d="M19.7581 15.7259C20.2035 15.7259 20.5646 15.3649 20.5646 14.9195C20.5646 14.4741 20.2035 14.113 19.7581 14.113C19.3127 14.113 18.9517 14.4741 18.9517 14.9195C18.9517 15.3649 19.3127 15.7259 19.7581 15.7259Z" fill="#2B2B37"/>
<path d="M8.31461 2.82258L16.1291 0L16.9356 1.6129L16.9517 1.66129L3.2259 6.54032L3.33074 6.83064C2.9201 6.76961 2.53841 6.58297 2.23807 6.29635C1.93774 6.00973 1.73347 5.63718 1.65332 5.22984L8.31461 2.82258Z" fill="#2FB380"/>
<path d="M8.31454 2.82302L1.65326 5.23028C1.61197 5.03691 1.60109 4.83829 1.621 4.64157C1.68426 4.13377 1.9329 3.66725 2.31917 3.33159C2.70543 2.99594 3.20208 2.81482 3.71374 2.82302H8.31454Z" fill="#BD6F08"/>
<path d="M16.129 22.5809V24.1938C16.1284 24.4075 16.0432 24.6123 15.8921 24.7634C15.741 24.9145 15.5363 24.9997 15.3226 25.0003H2.41937C2.20568 24.9997 2.00093 24.9145 1.84982 24.7634C1.69872 24.6123 1.61355 24.4075 1.61292 24.1938V18.9519H16.129V22.5809Z" fill="#FF6161"/>
<path d="M16.129 17.7419V18.9516H15.7258H2.01614H1.61292V17.7419H2.01614H15.7258H16.129Z" fill="#EDF4FA"/>
<path d="M16.129 16.1292V17.7421H1.61292V16.1292C1.61355 15.9155 1.69872 15.7108 1.84982 15.5597C2.00093 15.4086 2.20568 15.3234 2.41937 15.3228H15.3226C15.5363 15.3234 15.741 15.4086 15.8921 15.5597C16.0432 15.7108 16.1284 15.9155 16.129 16.1292Z" fill="#CB3541"/>
<path d="M15.3226 23.7906H10.8871C9.38721 23.7897 7.92446 23.3239 6.70019 22.4574C5.47593 21.5909 4.55034 20.3662 4.05082 18.9519H1.61292V24.1938C1.61355 24.4075 1.69872 24.6123 1.84982 24.7634C2.00093 24.9145 2.20568 24.9997 2.41937 25.0003H15.3226C15.5363 24.9997 15.741 24.9145 15.8921 24.7634C16.0432 24.6123 16.1284 24.4075 16.129 24.1938V22.9842C16.129 23.198 16.0441 23.4032 15.8928 23.5544C15.7416 23.7056 15.5365 23.7906 15.3226 23.7906Z" fill="#E03E3E"/>
<path d="M4.05082 18.9516C3.91169 18.5582 3.807 18.1535 3.73791 17.7419H1.61292V18.9516H4.05082Z" fill="#C1CFE8"/>
<path d="M3.73791 17.7421C3.66806 17.3426 3.63164 16.938 3.62904 16.5324V15.3228H2.41937C2.20568 15.3234 2.00093 15.4086 1.84982 15.5597C1.69872 15.7108 1.61355 15.9155 1.61292 16.1292V17.7421H3.73791Z" fill="#A81E29"/>
<path d="M16.9356 1.6126L16.6082 0.957764L4.36219 5.37994C4.16551 5.45095 3.94894 5.44279 3.75816 5.35718C3.56738 5.27157 3.41731 5.1152 3.33961 4.92107L3.23437 4.65817L1.65332 5.22954C1.73347 5.63688 1.93774 6.00943 2.23807 6.29605C2.53841 6.58267 2.9201 6.76931 3.33074 6.83034L3.2259 6.54002L16.9517 1.66099L16.9356 1.6126Z" fill="#2AA173"/>
<path d="M10.4097 5.64478H5.74397L3.22583 6.53994L3.33067 6.83026C3.4293 6.84649 3.5291 6.85458 3.62906 6.85445H7.04841V6.83832L10.4097 5.64478Z" fill="#2FB380"/>
<path d="M25 9.58832L23.6137 5.64478H21.4919L21.9173 6.85445H22.5807C22.7943 6.85509 22.9991 6.94026 23.1502 7.09136C23.3013 7.24246 23.3865 7.44722 23.3871 7.6609V10.1649L25 9.58832Z" fill="#2FB380"/>
<path d="M10.4096 5.64478L7.04834 6.83832V6.85445H21.9153L21.4899 5.64478H10.4096Z" fill="#2AA173"/>
<path d="M24.5969 16.1288H20.5646C20.3932 16.1284 20.2238 16.0913 20.0679 16.0201C19.912 15.9488 19.7731 15.8449 19.6606 15.7155C19.4651 15.6931 19.2848 15.5995 19.1538 15.4527C19.0229 15.3058 18.9505 15.1159 18.9505 14.9192C18.9505 14.7224 19.0229 14.5325 19.1538 14.3857C19.2848 14.2388 19.4651 14.1453 19.6606 14.1228C19.7731 13.9934 19.912 13.8896 20.0679 13.8183C20.2238 13.747 20.3932 13.7099 20.5646 13.7095H23.3872C23.6011 13.7095 23.8062 13.6245 23.9575 13.4733C24.1087 13.322 24.1937 13.1169 24.1937 12.903V11.6934H23.3872V12.903H18.5485C18.3348 12.9037 18.1301 12.9888 17.979 13.1399C17.8279 13.291 17.7427 13.4958 17.7421 13.7095V16.1288C17.7427 16.3425 17.8279 16.5473 17.979 16.6984C18.1301 16.8495 18.3348 16.9347 18.5485 16.9353H24.1937C24.4074 16.9347 24.6121 16.8495 24.7632 16.6984C24.9143 16.5473 24.9995 16.3425 25.0001 16.1288V15.7256C25.0001 15.8326 24.9576 15.9351 24.882 16.0107C24.8064 16.0864 24.7038 16.1288 24.5969 16.1288Z" fill="#CB3541"/>
<path d="M18.9517 18.1449H23.3872V16.9353H18.5485C18.4065 16.9344 18.2672 16.8955 18.1453 16.8228V17.3385C18.1453 17.5524 18.2302 17.7575 18.3815 17.9087C18.5327 18.06 18.7378 18.1449 18.9517 18.1449Z" fill="#FC9E20"/>
<path d="M1.6129 17.7424V16.1295C1.61354 15.9158 1.69871 15.711 1.84981 15.5599C2.00091 15.4088 2.20567 15.3237 2.41935 15.323H3.22581V6.80689C2.83728 6.72877 2.48059 6.53735 2.20072 6.25676C1.92086 5.97618 1.73035 5.619 1.65323 5.23028C1.61194 5.03691 1.60105 4.83829 1.62097 4.64157C1.68423 4.13377 1.93287 3.66725 2.31914 3.33159C2.7054 2.99594 3.20205 2.81482 3.71371 2.82302H2.41935C1.7777 2.82302 1.16233 3.07792 0.708612 3.53163C0.254895 3.98535 0 4.60072 0 5.24237V20.9682C0 21.3959 0.16993 21.8062 0.472408 22.1087C0.774886 22.4111 1.18513 22.5811 1.6129 22.5811V17.7424Z" fill="#FC9E20"/>
<path d="M22.1774 20.9672H18.9516C18.5238 20.9672 18.1136 20.7973 17.8111 20.4948C17.5086 20.1923 17.3387 19.7821 17.3387 19.3543V17.3382C17.3387 17.1243 17.2537 16.9192 17.1025 16.7679C16.9513 16.6167 16.7461 16.5317 16.5323 16.5317H16.129V22.5801H21.7742C22.6653 22.5801 23.3871 21.8583 23.3871 21.3704V19.7575C23.3871 20.0784 23.2596 20.3861 23.0328 20.6129C22.8059 20.8398 22.4982 20.9672 22.1774 20.9672Z" fill="#FC9E20"/>
<circle cx="25.5" cy="19.5" r="10.5" fill="url(#paint0_linear_182_39)"/>
<path d="M31.4594 18.3635V20.637C31.4594 20.8082 31.3208 20.9471 31.1494 20.9471H26.9468V25.1497C26.9468 25.321 26.8079 25.4597 26.6368 25.4597H24.3632C24.1922 25.4597 24.0532 25.321 24.0532 25.1497V20.9471H19.8506C19.6793 20.9471 19.5405 20.8082 19.5405 20.637V18.3635C19.5405 18.1923 19.6793 18.0534 19.8506 18.0534H24.0532V13.8508C24.0532 13.6794 24.1921 13.5408 24.3632 13.5408H26.6368C26.8079 13.5408 26.9468 13.6794 26.9468 13.8508V18.0534H31.1494C31.3208 18.0534 31.4594 18.1923 31.4594 18.3635Z" fill="white"/>
<defs>
<linearGradient id="paint0_linear_182_39" x1="25.5" y1="9" x2="25.5" y2="30" gradientUnits="userSpaceOnUse">
<stop stop-color="#80C714"/>
<stop offset="1" stop-color="#268832"/>
</linearGradient>
</defs>
</svg>
