<svg width="16" height="16" viewBox="0 0 16 16" fill="none" xmlns="http://www.w3.org/2000/svg">
<path d="M14.4883 1.5117C12.482 -0.503899 9.21013 -0.503899 7.20391 1.5117C5.82575 2.88048 5.34763 4.90551 5.94763 6.74298C3.82891 8.85235 2.25003 10.4313 0.140656 12.55C0.046875 12.6344 0 12.7562 0 12.8781V15.5313C0 15.6625 0.046875 15.7749 0.140656 15.8594C0.225 15.9531 0.3375 16 0.46875 16H3.12191C3.24378 16 3.36566 15.9531 3.45 15.8594C3.69375 15.625 3.87188 15.4375 4.11566 15.2031C4.21878 15.1 4.26563 14.9594 4.24691 14.8188C4.21875 14.5562 4.19066 14.3594 4.1625 14.1063C4.51875 14.0688 4.7906 14.0406 5.15625 14.0125C5.38125 13.9844 5.54997 13.8156 5.57813 13.5907C5.60622 13.2344 5.63438 12.9532 5.67184 12.5969C5.925 12.6344 6.12188 12.6532 6.38435 12.6813C6.64688 12.7188 6.89997 12.5031 6.89997 12.2219V11.3438H7.7625C7.88438 11.3438 8.00619 11.3125 8.0906 11.2187C8.52188 10.7875 8.82575 10.493 9.25703 10.0524C11.0945 10.6524 13.1195 10.1743 14.4883 8.7961C16.5039 6.78982 16.5039 3.51798 14.4883 1.5117ZM13.1664 4.8211C12.6226 5.37426 11.7226 5.37426 11.1789 4.8211C10.6258 4.27732 10.6258 3.37738 11.1789 2.8336C11.7226 2.28045 12.6226 2.28045 13.1664 2.8336C13.7195 3.37738 13.7195 4.27735 13.1664 4.8211Z" fill="#F3A30D"/>
<path d="M14.4883 8.79609C13.1196 10.1742 11.0945 10.6523 9.25706 10.0524C8.82578 10.493 8.52191 10.7875 8.09062 11.2187C8.00625 11.3125 7.88444 11.3437 7.76256 11.3437H6.90003V12.2218C6.90003 12.5031 6.64694 12.7187 6.38441 12.6812C6.12194 12.6531 5.92503 12.6343 5.67191 12.5969C5.63444 12.9531 5.60628 13.2344 5.57819 13.5906C5.55003 13.8156 5.38128 13.9843 5.15631 14.0125C4.79069 14.0406 4.51881 14.0687 4.16256 14.1062C4.19072 14.3594 4.21881 14.5562 4.24697 14.8187C4.26569 14.9593 4.21881 15.1 4.11572 15.2031C3.87197 15.4374 3.69384 15.6249 3.45006 15.8593C3.36572 15.953 3.24384 16 3.12197 16H0.46878C0.33753 16 0.22503 15.9531 0.140686 15.8593L11.179 4.82106C11.7227 5.37421 12.6227 5.37421 13.1665 4.82106C13.7196 4.27728 13.7196 3.37734 13.1665 2.83356L14.4883 1.51165C16.5039 3.51796 16.5039 6.78981 14.4883 8.79609Z" fill="#F3A30D"/>
</svg>
