<svg width="14" height="13" viewBox="0 0 14 13" fill="none" xmlns="http://www.w3.org/2000/svg">
<path d="M7.24243 10.8557H0V0H7.24237C7.37483 0 7.48222 0.107391 7.48222 0.239845V10.6159C7.48228 10.7483 7.37489 10.8557 7.24243 10.8557Z" fill="#414042"/>
<path d="M8.84712 2.27022L13.3562 5.34522C13.4738 5.42544 13.4738 5.59891 13.3562 5.67914L8.84712 8.75414C8.71299 8.84564 8.53113 8.74952 8.53113 8.58715V2.43721C8.53113 2.27484 8.71299 2.17872 8.84712 2.27022Z" fill="#E63950"/>
<path d="M13.3562 5.34531L12.8296 4.98621C12.8155 5.0223 12.792 5.0554 12.7565 5.07963L8.53113 7.96119V8.58724C8.53113 8.74962 8.71293 8.84574 8.84712 8.75424L13.3562 5.67924C13.4738 5.59907 13.4738 5.4256 13.3562 5.34531Z" fill="#D10028"/>
<path d="M4.66429 4.14026H8.5312V6.88409H4.66429C4.55264 6.88409 4.46216 6.79361 4.46216 6.68196V4.34239C4.46222 4.23074 4.5527 4.14026 4.66429 4.14026Z" fill="#E63950"/>
<path d="M7.93164 4.14026V6.28448H4.46216V6.68196C4.46216 6.79361 4.55264 6.88409 4.66429 6.88409H8.5312V4.14026H7.93164Z" fill="#D10028"/>
<path d="M5.62767 12.5608L0 10.8557V0L5.76678 1.74721C5.86794 1.77785 5.93707 1.87109 5.93707 1.97675V12.3312C5.93707 12.4922 5.78171 12.6075 5.62767 12.5608Z" fill="#FFA91A"/>
<path d="M0.359913 8.00826C0.293896 8.00826 0.23999 7.9549 0.23999 7.88834V3.69104C0.23999 3.62509 0.293896 3.57112 0.359913 3.57112C0.42587 3.57112 0.479836 3.62509 0.479836 3.69104V7.88834C0.479836 7.95496 0.42587 8.00826 0.359913 8.00826ZM0.359913 3.33128C0.293896 3.33128 0.23999 3.27791 0.23999 3.21135C0.23999 3.1454 0.293896 3.09143 0.359913 3.09143C0.42587 3.09143 0.479836 3.1454 0.479836 3.21135C0.479836 3.27797 0.42587 3.33128 0.359913 3.33128Z" fill="#FFC91D"/>
<path d="M5.76678 1.74724L5.33746 1.61719V11.7317C5.33746 11.8926 5.1821 12.0079 5.02806 11.9612L0 10.4378V10.8557L5.62767 12.5609C5.78171 12.6075 5.93707 12.4923 5.93707 12.3313V1.97678C5.93707 1.87112 5.86794 1.77788 5.76678 1.74724Z" fill="#F79219"/>
<path d="M5.76678 1.74722L5.63727 1.70801V12.0315C5.63727 12.1924 5.48191 12.3077 5.32787 12.261L0 10.6467V10.8557L5.62767 12.5608C5.78171 12.6075 5.93707 12.4922 5.93707 12.3313V1.97675C5.93707 1.8711 5.86794 1.77786 5.76678 1.74722Z" fill="#EF7816"/>
<path d="M4.46223 7.16629C4.7517 7.16629 4.98635 6.93163 4.98635 6.64216C4.98635 6.3527 4.7517 6.11804 4.46223 6.11804C4.17277 6.11804 3.93811 6.3527 3.93811 6.64216C3.93811 6.93163 4.17277 7.16629 4.46223 7.16629Z" fill="white"/>
<path d="M4.65084 6.15381C4.6735 6.21245 4.68645 6.27589 4.68645 6.34251C4.68645 6.63194 4.45182 6.86657 4.16233 6.86657C4.09571 6.86657 4.03228 6.85368 3.97363 6.83095C4.04942 7.02703 4.23932 7.16638 4.46214 7.16638C4.75157 7.16638 4.98626 6.93175 4.98626 6.64231C4.9862 6.4195 4.84691 6.22966 4.65084 6.15381Z" fill="#E6E7E8"/>
</svg>
