<svg width="22" height="23" viewBox="0 0 22 23" fill="none" xmlns="http://www.w3.org/2000/svg">
<path d="M22 21.6323V9.18093C21.9995 8.90398 21.8962 8.63705 21.7102 8.43182L22 21.6323ZM22 21.6323C22.0023 21.9429 21.8709 22.2395 21.6394 22.4465L22 21.6323ZM21.527 8.6019C21.6701 8.761 21.7496 8.96735 21.75 9.18135L21.75 21.6323L21.75 21.6341C21.7517 21.8729 21.6508 22.101 21.4728 22.2602L21.4725 22.2599L21.4627 22.2698L21.4374 22.295C21.2843 22.4226 21.0911 22.4923 20.8915 22.4916H20.8906H1.10973C1.10971 22.4916 1.1097 22.4916 1.10968 22.4916C0.91077 22.4916 0.718316 22.4212 0.566222 22.2932L0.56174 22.2856L0.532073 22.2593C0.352527 22.1004 0.249829 21.8722 0.250046 21.6325V21.6323V9.18093H0.250057L0.250035 9.17859C0.248058 8.96714 0.32898 8.76332 0.475452 8.61085L0.480871 8.6052L0.485927 8.59924C0.544616 8.52995 0.615117 8.47144 0.69413 8.42642C0.821054 8.35733 0.963308 8.32118 1.10785 8.32129H1.10804H20.888C21.1298 8.32621 21.3597 8.42719 21.527 8.6019Z" fill="#F6B863" stroke="black" stroke-width="0.5"/>
<path d="M21.3172 8.43293C21.249 8.48833 21.1668 8.55481 21.0718 8.63136C20.7742 8.87137 20.3529 9.20917 19.8494 9.61207C18.8423 10.4178 17.5067 11.4832 16.1734 12.5456C14.8401 13.6081 13.5093 14.6675 12.5118 15.4613L11.3069 16.4201L11.0059 16.6595L0.68973 8.43587L10.5569 0.408966C10.5569 0.408962 10.5569 0.408958 10.557 0.408953C10.8175 0.19702 11.1911 0.197007 11.4518 0.408968C11.4518 0.408971 11.4518 0.408974 11.4518 0.408977L21.3172 8.43293Z" fill="#EAA14E" stroke="black" stroke-width="0.5"/>
<path d="M19.2017 2.95166V10.1299L11.0048 16.6591L2.80298 10.1208V2.95166H19.2017Z" fill="#EEEFEE" stroke="black" stroke-width="0.5"/>
<path d="M12.9614 15.7509L17.6244 19.5219L12.5129 16.1121L12.9614 15.7509Z" fill="#EAA14E" stroke="black" stroke-width="0.5"/>
<path d="M9.03876 15.7419L9.49191 16.1073L4.35449 19.5364L9.03876 15.7419Z" fill="#EAA14E" stroke="black" stroke-width="0.5"/>
<path d="M4.67505 4.93311H17.3247V5.00362H4.67505V4.93311Z" fill="#DBD8DD" stroke="black" stroke-width="0.5"/>
<path d="M4.67505 7.13379H17.3247V7.2043H4.67505V7.13379Z" fill="#DBD8DD" stroke="black" stroke-width="0.5"/>
<path d="M4.67505 9.33447H17.3247V9.40499H4.67505V9.33447Z" fill="#DBD8DD" stroke="black" stroke-width="0.5"/>
<path d="M6.88354 11.5347H15.1165V11.6052H6.88354V11.5347Z" fill="#DBD8DD" stroke="black" stroke-width="0.5"/>
</svg>
