<svg width="27" height="24" viewBox="0 0 27 24" fill="none" xmlns="http://www.w3.org/2000/svg">
<path d="M12.796 20C12.796 21.5442 11.5442 22.796 10 22.796C8.45582 22.796 7.20401 21.5442 7.20401 20C7.20401 18.4558 8.45582 17.204 10 17.204C11.5442 17.204 12.796 18.4558 12.796 20Z" fill="#FFA000" stroke="black"/>
<path d="M16.5 12.788C16.5 14.9137 17.4314 16.9198 19.0548 18.2926C19.3426 18.5397 19.5 18.8862 19.5 19.25C19.5 19.9389 18.9389 20.5 18.25 20.5H1.75C1.06114 20.5 0.5 19.9389 0.5 19.25C0.5 18.8841 0.659015 18.5386 0.935805 18.302C2.56814 16.9214 3.5 14.9143 3.5 12.788V10C3.5 6.41619 6.4171 3.5 10 3.5C13.5829 3.5 16.5 6.41619 16.5 10V12.788Z" fill="#FFC107" stroke="black"/>
<path d="M10 3.5C9.80905 3.5 9.65854 3.44744 9.57035 3.38864C9.5224 3.35667 9.50535 3.33336 9.5 3.32343V0.67657C9.50535 0.666637 9.5224 0.643327 9.57035 0.611358C9.65854 0.552564 9.80905 0.5 10 0.5C10.1909 0.5 10.3415 0.552564 10.4296 0.611358C10.4776 0.643327 10.4947 0.666637 10.5 0.67657V3.32343C10.4947 3.33336 10.4776 3.35667 10.4296 3.38864C10.3415 3.44744 10.1909 3.5 10 3.5ZM9.49786 3.31812C9.49798 3.31809 9.49845 3.31912 9.49892 3.32129C9.49797 3.31924 9.49774 3.31815 9.49786 3.31812ZM9.49786 0.68188C9.49774 0.68185 9.49797 0.680765 9.49892 0.678712C9.49845 0.680882 9.49798 0.681909 9.49786 0.68188ZM10.5021 0.68188C10.502 0.681909 10.5015 0.680882 10.5011 0.678712C10.502 0.680765 10.5023 0.68185 10.5021 0.68188ZM10.5021 3.31812C10.5023 3.31815 10.502 3.31923 10.5011 3.32129C10.5015 3.31912 10.502 3.31809 10.5021 3.31812Z" stroke="black"/>
<path d="M18.9999 1C14.5889 1 11 4.58888 11 9.00011C11 13.4111 14.5889 17 18.9999 17C23.4111 17 27 13.4111 27 9.00011C27 4.58888 23.4111 1 18.9999 1ZM20.2308 11.7694C20.2308 12.2789 19.8173 12.6924 19.3077 12.6924C18.7982 12.6924 18.3847 12.2789 18.3847 11.7694V7.76919H17.7692C17.2596 7.76919 16.8461 7.35565 16.8461 6.84611C16.8461 6.33656 17.2596 5.92303 17.7692 5.92303H19.3077C19.8173 5.92303 20.2308 6.33656 20.2308 6.84611V11.7694Z" fill="#F44336"/>
</svg>
