<svg width="30" height="27" viewBox="0 0 30 27" fill="none" xmlns="http://www.w3.org/2000/svg">
<path d="M11.4276 26.3715C9.97327 26.3715 8.79041 25.1884 8.79041 23.7343C8.79041 22.28 9.97327 21.0972 11.4276 21.0972C12.8817 21.0972 14.0645 22.28 14.0645 23.7343C14.0645 25.1884 12.8817 26.3715 11.4276 26.3715Z" fill="#697C86"/>
<path d="M11.4276 24.613C10.9426 24.613 10.5485 24.2191 10.5485 23.7341C10.5485 23.2491 10.9426 22.855 11.4276 22.855C11.9126 22.855 12.3065 23.2491 12.3065 23.7341C12.3065 24.2191 11.9126 24.613 11.4276 24.613Z" fill="#465A61"/>
<path d="M23.8514 26.3715C22.3973 26.3715 21.2142 25.1884 21.2142 23.7343C21.2142 22.28 22.3973 21.0972 23.8514 21.0972C25.3055 21.0972 26.4886 22.28 26.4886 23.7343C26.4886 25.1884 25.3055 26.3715 23.8514 26.3715Z" fill="#596C76"/>
<path d="M23.8513 24.613C23.3663 24.613 22.9722 24.2191 22.9722 23.7341C22.9722 23.2491 23.3663 22.855 23.8513 22.855C24.3363 22.855 24.7302 23.2491 24.7302 23.7341C24.7302 24.2191 24.3363 24.613 23.8513 24.613Z" fill="#3B4A51"/>
<path d="M26.6291 20.218C26.6291 20.7103 26.2423 21.0971 25.7502 21.0971H8.93125C7.47189 21.0971 6.29407 19.9191 6.29407 18.4599C6.29407 17.1239 7.27849 16.0162 8.57945 15.858C8.68497 15.8228 8.80811 15.8228 8.93125 15.8228C9.14205 15.8228 9.35308 15.9109 9.49384 16.0514L8.96626 17.581C8.94887 17.581 8.94887 17.581 8.93125 17.581C8.43892 17.581 8.05211 17.9676 8.05211 18.4599C8.05211 18.9523 8.43892 19.3391 8.93125 19.3391H25.7502C26.2423 19.3391 26.6291 19.7257 26.6291 20.218Z" fill="#465A61"/>
<path d="M5.83375 3.51815C5.88959 3.58841 6.83625 4.01596 7.78931 4.43459C7.79275 4.35883 7.80236 4.28376 7.78519 4.20639L7.0118 0.690079C6.92322 0.28656 6.56617 0 6.15326 0H0.879136C0.393219 0 0 0.393219 0 0.879136C0 1.36482 0.393219 1.75804 0.879136 1.75804H5.44671L5.83375 3.51815Z" fill="#465A61"/>
<path d="M26.629 20.2178C26.629 20.7101 26.2422 21.0969 25.7501 21.0969H17.4811V19.3389H25.7501C26.2422 19.3389 26.629 19.7254 26.629 20.2178Z" fill="#3B4A51"/>
<path d="M29.8288 3.8679C29.653 3.63925 29.4067 3.51611 29.1254 3.51611H5.83667L8.57936 15.8579L8.96617 17.5809H25.6093C25.9961 17.5809 26.3477 17.317 26.4532 16.9478L29.9693 4.6413C30.0398 4.37763 29.9869 4.07871 29.8288 3.8679Z" fill="#FDBF00"/>
<path d="M29.9693 4.6413L26.4533 16.9478C26.3477 17.317 25.9962 17.5809 25.6094 17.5809H17.4811V3.51611H29.1255C29.4067 3.51611 29.653 3.63925 29.8288 3.8679C29.987 4.07871 30.0398 4.37763 29.9693 4.6413Z" fill="#FF9F00"/>
</svg>
