<svg width="24" height="24" viewBox="0 0 24 24" fill="none" xmlns="http://www.w3.org/2000/svg">
<path d="M22.25 10H13.75C12.784 10 12 10.784 12 11.75V22.25C12 23.216 12.784 24 13.75 24H22.25C23.216 24 24 23.216 24 22.25V11.75C24 10.784 23.216 10 22.25 10ZM20.125 20H15.625C15.211 20 14.875 19.664 14.875 19.25C14.875 18.836 15.211 18.5 15.625 18.5H20.125C20.539 18.5 20.875 18.836 20.875 19.25C20.875 19.664 20.539 20 20.125 20ZM20.125 17H15.625C15.211 17 14.875 16.664 14.875 16.25C14.875 15.836 15.211 15.5 15.625 15.5H20.125C20.539 15.5 20.875 15.836 20.875 16.25C20.875 16.664 20.539 17 20.125 17Z" fill="#F3A30D"/>
<path d="M14.25 3H13V2.75C13 2.336 12.664 2 12.25 2H11.146C10.818 0.847 9.757 0 8.5 0C7.243 0 6.182 0.847 5.854 2H4.75C4.336 2 4 2.336 4 2.75V3H2.75C1.233 3 0 4.233 0 5.75V18.25C0 19.767 1.233 21 2.75 21H10.5V11.75C10.5 9.958 11.958 8.5 13.75 8.5H17V5.75C17 4.233 15.767 3 14.25 3ZM5.5 3.5H6.5C6.914 3.5 7.25 3.164 7.25 2.75C7.25 2.061 7.811 1.5 8.5 1.5C9.189 1.5 9.75 2.061 9.75 2.75C9.75 3.164 10.086 3.5 10.5 3.5H11.5V4.75C11.5 4.888 11.388 5 11.25 5H5.75C5.612 5 5.5 4.888 5.5 4.75V3.5Z" fill="#333333"/>
</svg>
