<svg width="14" height="20" viewBox="0 0 14 20" fill="none" xmlns="http://www.w3.org/2000/svg">
<path d="M8.50382 4.15748L7.50331 3.45218C7.4296 3.40023 7.33823 3.37979 7.24936 3.39509C7.16046 3.41047 7.08134 3.46055 7.02936 3.5343L0.795694 12.3774C0.729285 12.4717 0.715166 12.5933 0.758246 12.7003C0.801326 12.8074 0.895706 12.8853 1.00889 12.9073L1.26676 12.9573C1.34557 12.9726 1.41936 13.0042 1.48581 13.0511C1.55169 13.0976 1.60596 13.1564 1.64694 13.2258L1.78075 13.4525C1.83939 13.5519 1.94458 13.6148 2.05993 13.6194C2.06458 13.6196 2.06914 13.6197 2.07371 13.6197C2.184 13.6197 2.28774 13.5662 2.35164 13.4756L8.58595 4.63155C8.6941 4.47799 8.65738 4.26579 8.50382 4.15748Z" fill="#F99841"/>
<path d="M10.9915 5.91111L9.99102 5.20581C9.83746 5.09761 9.62526 5.13434 9.51703 5.28786L3.28329 14.1309C3.21684 14.2252 3.20272 14.3469 3.24576 14.4539C3.28873 14.5609 3.38322 14.6388 3.49644 14.6608L3.75431 14.7109C3.83317 14.7262 3.90696 14.7578 3.97333 14.8046C4.0392 14.8511 4.09344 14.9099 4.13454 14.9795L4.26842 15.2062C4.3271 15.3056 4.43218 15.3684 4.5476 15.373C4.55221 15.3733 4.55677 15.3733 4.56134 15.3733C4.67167 15.3733 4.77545 15.3199 4.83931 15.2293L11.0737 6.3851C11.1818 6.23155 11.1451 6.01938 10.9915 5.91111Z" fill="#FFD05C"/>
<path d="M9.88686 5.25431C9.87152 5.16541 9.82144 5.08629 9.74772 5.03431L8.7471 4.329C8.59343 4.22077 8.38138 4.2575 8.27311 4.41105L2.0394 13.2541C1.97288 13.3485 1.95888 13.47 2.00184 13.5771C2.04492 13.6841 2.1393 13.762 2.25256 13.784L2.51051 13.8341C2.58947 13.8494 2.66311 13.881 2.72952 13.9279C2.79544 13.9743 2.84959 14.033 2.89061 14.1026L3.0245 14.3292C3.08322 14.4286 3.18829 14.4914 3.30368 14.4961C3.30825 14.4963 3.31289 14.4964 3.31742 14.4964C3.42774 14.4964 3.53156 14.4429 3.59542 14.3523L9.82977 5.5083C9.88168 5.43455 9.90219 5.34321 9.88686 5.25431Z" fill="#FBB85F"/>
<path d="M11.1355 6.3065L12.4362 4.45185C12.5444 4.29833 12.5077 4.08616 12.3541 3.97789L8.86604 1.51898C8.79232 1.46703 8.70099 1.44656 8.61212 1.46186C8.52319 1.47723 8.44407 1.52728 8.39208 1.60099L7.08777 3.47086L11.1355 6.3065Z" fill="#D1D6E4"/>
<path d="M12.1588 1.14288C12.0916 1.0961 12.0234 1.04865 11.9544 0.999974L11.8052 0.894786C11.7455 0.852657 11.6867 0.810871 11.6291 0.769732L11.6008 0.7496C11.0606 0.364087 10.5503 0 10.0626 0C9.69802 0 9.38512 0.192414 9.10613 0.588164L8.35596 1.65242L12.3888 4.51925L13.1504 3.43898C13.3873 3.10302 13.477 2.79533 13.4247 2.49834C13.3298 1.95831 12.7877 1.58083 12.1588 1.14288Z" fill="#EF5440"/>
<path opacity="0.15" d="M7.71288 3.90894C7.72745 3.89045 7.74332 3.87324 7.76113 3.85821L7.7611 3.85817L9.02948 2.03979L9.02922 2.03964L9.06503 1.98884L9.06541 1.9883L9.06545 1.98826L9.77943 0.97539C10.0584 0.579639 10.3713 0.387226 10.7359 0.387226C10.9057 0.387226 11.0782 0.432018 11.2537 0.50581C11.157 0.439858 11.0614 0.377331 10.9666 0.319865C10.9562 0.313548 10.9457 0.307193 10.9353 0.301027C10.9184 0.29098 10.9014 0.281124 10.8846 0.271381C10.8718 0.264074 10.8592 0.256958 10.8465 0.249879C10.831 0.241202 10.8155 0.232449 10.8 0.224115C10.7796 0.213079 10.7592 0.202575 10.7388 0.192224C10.722 0.183661 10.7052 0.175517 10.6885 0.167411C10.6707 0.15881 10.6531 0.150361 10.6354 0.142293C10.6232 0.136775 10.611 0.131562 10.5989 0.12631C10.5818 0.118889 10.5647 0.111772 10.5477 0.10496C10.5361 0.100355 10.5245 0.0957123 10.513 0.0913357C10.4929 0.0837244 10.4728 0.0767601 10.4528 0.0700241C10.4446 0.067284 10.4364 0.0641634 10.4281 0.0616136C10.4005 0.0527844 10.3729 0.0449067 10.3454 0.0378663C10.3373 0.0357732 10.3292 0.0341367 10.321 0.0322339C10.3007 0.0274388 10.2804 0.0229862 10.2601 0.0192566C10.2505 0.0174299 10.2407 0.0158696 10.231 0.0143093C10.2114 0.0111506 10.1918 0.00860078 10.1722 0.00646962C10.1634 0.00555626 10.1547 0.00445262 10.1459 0.00372954C10.1181 0.00148421 10.0902 0 10.0625 0C9.69787 0 9.38497 0.192414 9.10598 0.588164L8.392 1.60104L8.39196 1.60108L8.39158 1.60161L8.35577 1.65242L8.35603 1.65257L7.08765 3.47095L7.71288 3.90894Z" fill="#30302F"/>
<path d="M13.6811 17.726H3.75821C3.58212 17.726 3.43933 17.5833 3.43933 17.4072C3.43933 17.231 3.58208 17.0883 3.75821 17.0883H13.6811C13.8573 17.0883 14.0001 17.231 14.0001 17.4072C14 17.5833 13.8573 17.726 13.6811 17.726Z" fill="#D1D6E4"/>
<path d="M2.73779 17.726H0.401922C0.225796 17.726 0.0830078 17.5833 0.0830078 17.4072C0.0830078 17.231 0.225758 17.0883 0.401922 17.0883H2.73779C2.91392 17.0883 3.05667 17.231 3.05667 17.4072C3.05667 17.5833 2.91392 17.726 2.73779 17.726Z" fill="#D1D6E4"/>
<path d="M13.681 19.485H0.401922C0.225796 19.485 0.0830078 19.3423 0.0830078 19.1662C0.0830078 18.99 0.225758 18.8473 0.401922 18.8473H13.681C13.8572 18.8473 13.9999 18.99 13.9999 19.1662C13.9999 19.3423 13.8572 19.485 13.681 19.485Z" fill="#D1D6E4"/>
<path d="M1.99418 16.2384L0.784135 15.3854C0.677424 15.3102 0.539012 15.2963 0.419591 15.3491C0.300093 15.4018 0.262379 15.1878 0.246053 15.3174L0.00294746 17.2079C-0.0143302 17.3445 0.0452664 17.4795 0.157686 17.5587C0.221621 17.6038 0.296706 17.6267 0.372134 17.6267C0.429486 17.6267 0.487103 17.6134 0.540078 17.5866L2.19413 16.7299C2.31066 16.6709 2.14138 16.6998 2.15086 16.5696C2.16037 16.4394 2.10089 16.3137 1.99418 16.2384Z" fill="#415B6B"/>
<path d="M4.48491 14.0479C4.27979 13.9032 4.02492 13.8451 3.77386 13.8879C3.72949 13.8956 3.68607 13.9063 3.64394 13.9198C3.63446 13.6311 3.49483 13.35 3.24115 13.1711C3.07975 13.0574 2.88996 12.9973 2.69226 12.9973C2.63799 12.9973 2.58349 13.002 2.53017 13.0112C2.4858 13.0189 2.44238 13.0295 2.40014 13.0431C2.39077 12.7545 2.25111 12.4732 1.99742 12.2944C1.83606 12.1806 1.64623 12.1205 1.44845 12.1205C1.39426 12.1205 1.33984 12.1252 1.28645 12.1344C1.03668 12.1776 0.818391 12.3154 0.671378 12.523L0.631951 12.5789C0.59987 12.6244 0.579434 12.6771 0.572431 12.7324L0.221436 15.5119C0.239512 15.5218 0.257056 15.5326 0.274144 15.5445L2.05363 16.799C2.06292 16.7952 2.07213 16.7916 2.08118 16.7871L4.5517 15.5372C4.60125 15.5122 4.64403 15.4752 4.67607 15.4298L4.71611 15.3731C5.01671 14.9441 4.91305 14.3497 4.48491 14.0479Z" fill="#E2B186"/>
<path opacity="0.15" d="M0.493652 17.5901L0.731962 17.4696L1.40701 12.1226C1.36656 12.1242 1.32618 12.1276 1.28641 12.1344C1.03664 12.1777 0.818351 12.3155 0.671338 12.5231L0.631912 12.5789C0.59983 12.6244 0.579393 12.6772 0.572391 12.7324L0.220787 15.5174C0.214051 15.5701 0.220254 15.6222 0.236771 15.6703C0.208951 15.7127 0.189961 15.7613 0.183377 15.8134L0.00268465 17.2441C-0.0130708 17.3689 0.0413499 17.4922 0.144141 17.5647C0.202558 17.6058 0.271212 17.6268 0.34017 17.6268C0.39265 17.6268 0.445206 17.6146 0.493652 17.5901Z" fill="#30302F"/>
</svg>
