<svg width="25" height="25" viewBox="0 0 25 25" fill="none" xmlns="http://www.w3.org/2000/svg">
<circle cx="12.5" cy="12.5" r="12.5" fill="url(#paint0_linear_59_560)"/>
<path d="M19.5946 11.1467V13.8533C19.5946 14.0571 19.4295 14.2224 19.2255 14.2224H14.2224V19.2255C14.2224 19.4295 14.0571 19.5946 13.8533 19.5946H11.1467C10.9431 19.5946 10.7776 19.4295 10.7776 19.2255V14.2224H5.77449C5.57057 14.2224 5.4054 14.0571 5.4054 13.8533V11.1467C5.4054 10.9429 5.57057 10.7776 5.77449 10.7776H10.7776V5.77449C10.7776 5.57049 10.943 5.4054 11.1467 5.4054H13.8533C14.0571 5.4054 14.2224 5.57049 14.2224 5.77449V10.7776H19.2255C19.4295 10.7776 19.5946 10.9429 19.5946 11.1467Z" fill="white"/>
<defs>
<linearGradient id="paint0_linear_59_560" x1="12.5" y1="0" x2="12.5" y2="25" gradientUnits="userSpaceOnUse">
<stop stop-color="#80C714"/>
<stop offset="1" stop-color="#268832"/>
</linearGradient>
</defs>
</svg>
