<svg width="21" height="25" viewBox="0 0 21 25" fill="none" xmlns="http://www.w3.org/2000/svg">
<path d="M5.57583 11.283C6.69002 13.7418 9.07541 14.8121 10.2594 14.8121C11.0379 14.8121 12.3358 14.349 13.4503 13.3331C13.0428 13.3616 12.6073 13.376 12.1419 13.376C12.0326 13.376 11.9181 13.375 11.7956 13.3731C11.561 13.5538 11.2704 13.6556 10.9688 13.6556H9.9772C9.22991 13.6556 8.62197 13.0477 8.62197 12.3004C8.62197 11.5531 9.22991 10.9452 9.9772 10.9452H10.9688C11.3271 10.9452 11.6621 11.0848 11.9106 11.3256C11.9932 11.3266 12.0746 11.327 12.1544 11.327C13.4345 11.327 14.2781 11.2095 14.83 11.0679C14.7584 10.8937 14.7194 10.7032 14.7194 10.5042V7.06805C14.7194 6.7106 14.8521 6.36796 15.0815 6.10326C14.9591 5.15031 14.7369 4.42278 14.4053 3.88612C13.722 2.78019 12.4046 2.26514 10.2594 2.26514C8.47984 2.26514 7.25095 2.63455 6.5026 3.39447C5.9225 3.98356 5.58634 4.82413 5.4292 6.09361C5.66375 6.3593 5.79941 6.70544 5.79941 7.06805V10.5042C5.79947 10.7901 5.7173 11.0569 5.57583 11.283Z" fill="white"/>
<path d="M3.1377 11.3154H4.32726C4.77507 11.3154 5.13841 10.9522 5.13841 10.5041V7.06802C5.13841 6.76868 4.97584 6.50788 4.73468 6.36734C5.0003 3.5537 6.08607 1.60396 10.2595 1.60396C12.6561 1.60396 14.1522 2.21877 14.9677 3.53862C15.4423 4.30667 15.6705 5.2987 15.7772 6.37157C15.5398 6.51311 15.3805 6.77159 15.3805 7.06796V10.5041C15.3805 10.8903 15.6508 11.2129 16.0123 11.2947C15.4879 11.6376 14.4023 11.9879 12.1544 11.9879C11.9724 11.9879 11.7826 11.9856 11.5849 11.9809C11.4692 11.7584 11.237 11.6062 10.9689 11.6062H9.97735C9.59405 11.6062 9.28321 11.9169 9.28321 12.3003C9.28321 12.6837 9.59405 12.9944 9.97735 12.9944H10.9689C11.2006 12.9944 11.4052 12.8805 11.5312 12.7062C11.74 12.7115 11.9444 12.7148 12.1419 12.7148C14.6757 12.7147 16.2865 12.2823 16.9388 11.4242C16.9666 11.3877 16.9919 11.3513 17.015 11.3154H17.3814C17.8293 11.3154 18.1926 10.9522 18.1926 10.5041V7.06802C18.1926 6.62007 17.8294 6.25687 17.3814 6.25687H16.934C16.8081 4.96062 16.5291 3.85713 15.9551 2.92844C14.922 1.25623 13.0588 0.443359 10.2594 0.443359C7.45987 0.443359 5.59687 1.25623 4.56366 2.92851C3.98977 3.8572 3.71086 4.96055 3.58492 6.25694H3.13763C2.68962 6.25694 2.32642 6.62007 2.32642 7.06809V10.5042C2.32642 10.9522 2.68968 11.3154 3.1377 11.3154Z" fill="white"/>
<path d="M20.0666 21.4195C19.7968 19.7425 19.2416 17.5824 18.128 16.8149C17.3687 16.2912 14.7177 14.8748 13.5858 14.2701L13.562 14.2574C13.4324 14.1882 13.2743 14.202 13.1588 14.2927C12.565 14.7588 11.9149 15.0728 11.2266 15.226C11.105 15.253 11.0051 15.3396 10.9609 15.4561L10.2595 17.3045L9.55817 15.4561C9.51394 15.3395 9.41405 15.253 9.29241 15.226C8.60416 15.0728 7.95391 14.7588 7.35999 14.2927C7.24457 14.202 7.08644 14.1881 6.95693 14.2574C5.83758 14.8554 3.15232 16.3015 2.39419 16.8126C1.11175 17.6766 0.551684 20.8019 0.452455 21.4196C0.442605 21.4809 0.44829 21.5435 0.468982 21.602C0.514861 21.7315 1.6912 24.774 10.2594 24.774C18.8276 24.774 20.004 21.7315 20.05 21.602C20.0707 21.5435 20.0764 21.4807 20.0666 21.4195ZM16.0771 19.4938H12.6834V18.7791H16.0771V19.4938Z" fill="white"/>
</svg>
