<svg width="29" height="29" viewBox="0 0 29 29" fill="none" xmlns="http://www.w3.org/2000/svg">
<path d="M16.1992 10.4219H3.96484C2.08794 10.4219 0.566406 11.9434 0.566406 13.8203V22.543C0.566406 24.4199 2.08794 25.9414 3.96484 25.9414H7.6453L7.59426 25.9458L10.082 28.4336L10.0838 25.9414H16.1992C18.0761 25.9414 19.5977 24.4199 19.5977 22.543V13.8203C19.5977 11.9434 18.0761 10.4219 16.1992 10.4219Z" fill="#C7EAFF"/>
<path d="M10.0821 29C9.93471 29 9.78988 28.9425 9.68153 28.8341L7.35524 26.5078H3.96484C1.77863 26.5078 0 24.7292 0 22.543V13.8203C0 11.6341 1.77863 9.85547 3.96484 9.85547H9.68555C9.99832 9.85547 10.252 10.109 10.252 10.4219C10.252 10.7347 9.99832 10.9883 9.68555 10.9883H3.96484C2.40326 10.9883 1.13281 12.2587 1.13281 13.8203V22.543C1.13281 24.1046 2.40326 25.375 3.96484 25.375H7.6453C7.87696 25.375 8.07724 25.5144 8.16475 25.7153L9.51664 27.0671L9.51744 25.941C9.51766 25.6284 9.77113 25.375 10.0838 25.375H16.1992C17.7608 25.375 19.0312 24.1046 19.0312 22.543V18.6348C19.0312 18.3219 19.2849 18.0684 19.5977 18.0684C19.9104 18.0684 20.1641 18.3219 20.1641 18.6348V22.543C20.1641 24.7292 18.3854 26.5078 16.1992 26.5078H10.6498L10.6484 28.434C10.6483 28.663 10.5102 28.8694 10.2986 28.957C10.2286 28.9859 10.155 29 10.0821 29Z" fill="black"/>
<path d="M20.7676 0.566406H19.3341C15.1002 0.566406 11.668 3.9986 11.668 8.23249C11.668 12.4663 15.1002 15.8986 19.3341 15.8986H20.7676C21.5523 15.8986 22.3093 15.7804 23.0221 15.5614L25.375 17.9129V14.3596C27.2325 12.9607 28.4336 10.7369 28.4336 8.23243C28.4336 3.9986 25.0014 0.566406 20.7676 0.566406Z" fill="#FFBC53"/>
<path d="M25.3751 18.4793C25.2277 18.4793 25.083 18.4217 24.9746 18.3135L22.857 16.1971C22.1773 16.3749 21.476 16.4649 20.7675 16.4649H19.334C14.7946 16.4649 11.1016 12.7719 11.1016 8.23249C11.1016 3.69308 14.7946 0 19.3341 0H20.7676C25.3069 0 29 3.69308 29 8.23249C29 9.54746 28.6991 10.8043 28.1054 11.968C27.5827 12.9926 26.838 13.9098 25.9414 14.6359V17.9129C25.9414 18.1419 25.8034 18.3484 25.5918 18.4361C25.5218 18.4652 25.4481 18.4793 25.3751 18.4793ZM23.0221 14.9949C23.17 14.9949 23.3147 15.053 23.4225 15.1607L24.8086 16.546V14.3597C24.8086 14.1818 24.8922 14.0143 25.0342 13.9073C26.8346 12.5513 27.8672 10.4829 27.8672 8.23249C27.8672 4.31771 24.6823 1.13281 20.7676 1.13281H19.3341C15.4193 1.13281 12.2344 4.31771 12.2344 8.23249C12.2344 12.1473 15.4192 15.3322 19.3341 15.3322H20.7676C21.479 15.3322 22.1816 15.2272 22.8558 15.02C22.9105 15.0031 22.9666 14.9949 23.0221 14.9949Z" fill="black"/>
<path d="M20.2093 10.5788C19.8966 10.5788 19.6429 10.3253 19.6429 10.0124V8.65164C19.6429 8.14431 19.9901 7.71225 20.4873 7.60101C21.101 7.46372 21.5148 6.90626 21.4713 6.27545C21.4283 5.65088 20.9248 5.1474 20.3002 5.10435C19.9439 5.07977 19.6053 5.19945 19.3462 5.44125C19.0869 5.68327 18.9441 6.01185 18.9441 6.36636C18.9441 6.67919 18.6905 6.93277 18.3777 6.93277C18.0649 6.93277 17.8113 6.67919 17.8113 6.36636C17.8113 5.70417 18.089 5.06516 18.5733 4.61311C19.0643 4.15471 19.7058 3.92798 20.378 3.97414C21.5638 4.05588 22.5197 5.01174 22.6014 6.19751C22.6827 7.37683 21.917 8.42117 20.7757 8.6969V10.0124C20.7757 10.3253 20.5222 10.5788 20.2093 10.5788Z" fill="black"/>
<path d="M20.2092 12.8196C20.0603 12.8196 19.9141 12.7595 19.8088 12.6542C19.7035 12.5488 19.6428 12.4027 19.6428 12.2532C19.6428 12.1042 19.7034 11.9581 19.8088 11.8527C19.9141 11.7474 20.0603 11.6868 20.2092 11.6868C20.3582 11.6868 20.5043 11.7474 20.6097 11.8527C20.715 11.9581 20.7756 12.1042 20.7756 12.2532C20.7756 12.4027 20.715 12.5483 20.6097 12.6542C20.5043 12.7595 20.3582 12.8196 20.2092 12.8196Z" fill="black"/>
<path d="M15.5762 18.6914H3.625C3.31223 18.6914 3.05859 18.4378 3.05859 18.125C3.05859 17.8122 3.31223 17.5586 3.625 17.5586H15.5762C15.8889 17.5586 16.1426 17.8122 16.1426 18.125C16.1426 18.4378 15.889 18.6914 15.5762 18.6914Z" fill="black"/>
<path d="M15.5762 21.8633C15.4272 21.8633 15.2811 21.8027 15.1757 21.6973C15.0704 21.592 15.0098 21.4458 15.0098 21.2969C15.0098 21.1479 15.0703 21.0018 15.1757 20.8964C15.2811 20.7911 15.4272 20.7305 15.5762 20.7305C15.7251 20.7305 15.8713 20.7911 15.9766 20.8964C16.0819 21.0018 16.1426 21.1479 16.1426 21.2969C16.1426 21.4464 16.082 21.592 15.9766 21.6973C15.8713 21.8027 15.7251 21.8633 15.5762 21.8633Z" fill="black"/>
<path d="M13.3483 21.8633H3.625C3.31223 21.8633 3.05859 21.6097 3.05859 21.2969C3.05859 20.984 3.31223 20.7305 3.625 20.7305H13.3483C13.6611 20.7305 13.9147 20.984 13.9147 21.2969C13.9147 21.6097 13.6612 21.8633 13.3483 21.8633Z" fill="black"/>
<path d="M11.8945 15.5195H3.625C3.31223 15.5195 3.05859 15.266 3.05859 14.9531C3.05859 14.6403 3.31223 14.3867 3.625 14.3867H11.8945C12.2073 14.3867 12.4609 14.6403 12.4609 14.9531C12.4609 15.266 12.2074 15.5195 11.8945 15.5195Z" fill="black"/>
</svg>
