<svg width="19" height="17" viewBox="0 0 19 17" fill="none" xmlns="http://www.w3.org/2000/svg">
<path d="M12.9168 7.95016H10.8165V5.26099C10.8165 4.95735 10.5704 4.71118 10.2667 4.71118C9.96309 4.71118 9.71692 4.95735 9.71692 5.26099V8.49997C9.71692 8.80361 9.96309 9.04977 10.2667 9.04977H12.9168C13.2204 9.04977 13.4666 8.80361 13.4666 8.49997C13.4666 8.19633 13.2204 7.95016 12.9168 7.95016Z" fill="#265C76"/>
<path d="M16.2771 2.48967C14.6716 0.884198 12.5371 0 10.2667 0C7.9963 0 5.86181 0.884161 4.25637 2.48959C2.7811 3.96487 1.91493 5.88659 1.78411 7.95019H0.5498C0.327422 7.95019 0.126962 8.08413 0.0418523 8.28961C-0.043221 8.49505 0.00380575 8.73154 0.16105 8.88879L3.10555 11.8333C3.20866 11.9364 3.3485 11.9944 3.4943 11.9944C3.64011 11.9944 3.77998 11.9365 3.88305 11.8333L6.82759 8.88879C6.98484 8.73154 7.03187 8.49509 6.94679 8.28961C6.86168 8.08416 6.66122 7.95019 6.43885 7.95019H5.25167C5.52646 5.42614 7.67074 3.45524 10.2667 3.45524C11.6142 3.45524 12.881 3.97997 13.8338 4.93282C14.7867 5.88564 15.3115 7.1525 15.3115 8.5C15.3115 11.2817 13.0484 13.5448 10.2667 13.5448C9.38764 13.5448 8.52261 13.3153 7.76611 12.8822C7.75922 12.8778 7.752 12.8735 7.74431 12.869C7.48179 12.7174 7.18347 12.6373 6.88155 12.6373C6.26577 12.6373 5.6921 12.9683 5.38439 13.5012C5.15362 13.9008 5.0923 14.3664 5.21175 14.8122C5.32743 15.2441 5.59947 15.6073 5.97983 15.8392C5.99138 15.8472 6.00333 15.8547 6.01568 15.8619C7.30255 16.6064 8.77248 17 10.2667 17C12.5371 17 14.6717 16.1158 16.2771 14.5104C17.8826 12.905 18.7667 10.7704 18.7667 8.5C18.7667 6.22956 17.8825 4.09503 16.2771 2.48967Z" fill="#FF5B5B"/>
<path d="M12.9168 7.95016H10.8165V5.26099C10.8165 4.95735 10.5704 4.71118 10.2667 4.71118V9.04977H12.9168C13.2204 9.04977 13.4666 8.80361 13.4666 8.49997C13.4666 8.19633 13.2204 7.95016 12.9168 7.95016Z" fill="#1D4659"/>
<path d="M16.2771 2.48967C14.6717 0.884198 12.5371 0 10.2667 0V3.45527C11.6143 3.45527 12.8811 3.98001 13.8339 4.93286C14.7868 5.88567 15.3115 7.15254 15.3115 8.50004C15.3115 11.2817 13.0484 13.5448 10.2667 13.5448V17C12.5372 17 14.6717 16.1158 16.2772 14.5104C17.8826 12.905 18.7667 10.7704 18.7667 8.5C18.7667 6.22956 17.8826 4.09503 16.2771 2.48967Z" fill="#FF0059"/>
</svg>
