<svg width="23" height="23" viewBox="0 0 23 23" fill="none" xmlns="http://www.w3.org/2000/svg">
<path d="M23 11.5C23 17.8513 17.8513 23 11.5 23C8.15186 23 5.13792 21.5693 3.03647 19.2857C2.48447 18.6863 1.99584 18.0278 1.57996 17.3213C0.575939 15.6137 0 13.624 0 11.5C0 5.14871 5.14871 0 11.5 0C13.6244 0 15.6142 0.575939 17.3213 1.58043C18.0278 1.99584 18.6859 2.48447 19.2853 3.03694C21.5688 5.13745 23 8.15186 23 11.5Z" fill="#F0CD00"/>
<path d="M23 11.4998C23 17.708 18.0813 22.767 11.9281 22.9918C5.77488 22.767 0.856171 17.708 0.856171 11.4998C0.856171 5.29171 5.77488 0.232649 11.9281 0.0078125C18.0813 0.232649 23 5.29171 23 11.4998Z" fill="#FFDE50"/>
<path d="M19.2853 3.03683L3.03647 19.2856C2.48447 18.6862 1.99583 18.0277 1.57996 17.3212L17.3213 1.58032C18.0278 1.99573 18.6859 2.48436 19.2853 3.03683Z" fill="#FFEA94"/>
<path d="M22.2067 7.29563L7.29522 22.2071C6.23957 21.7922 5.25995 21.2256 4.38361 20.5342L20.5343 4.38354C21.2257 5.25989 21.7923 6.2395 22.2067 7.29563Z" fill="#FFEA94"/>
<path d="M20.4362 11.5002C20.4362 16.4353 16.4351 20.4364 11.5 20.4364C9.78109 20.4364 8.17578 19.951 6.81315 19.1099C6.21937 18.7438 5.67207 18.3096 5.18109 17.8186C4.82013 17.4581 4.48968 17.0662 4.19443 16.6479C3.78795 16.072 3.44764 15.4458 3.18525 14.7807C2.7966 13.7974 2.57786 12.7281 2.56472 11.61C2.56378 11.5734 2.56378 11.5368 2.56378 11.5002C2.56378 6.56503 6.56437 2.56396 11.5 2.56396C11.5366 2.56396 11.5737 2.56396 11.6103 2.5649C12.7284 2.57805 13.7972 2.79725 14.7805 3.18543C15.4457 3.44829 16.0718 3.78813 16.6478 4.19462C17.066 4.49033 17.4575 4.82031 17.8184 5.18127C18.3094 5.67178 18.7436 6.21956 19.1097 6.81333C19.9508 8.17596 20.4362 9.78127 20.4362 11.5002Z" fill="#FAA300"/>
<path d="M17.8184 5.18127L5.18109 17.8186C4.82013 17.4581 4.48968 17.0662 4.19443 16.6479C3.78795 16.072 3.44764 15.4458 3.18525 14.7807C2.7966 13.7974 2.57786 12.7281 2.56472 11.61C2.56378 11.5734 2.56378 11.5368 2.56378 11.5002C2.56378 6.56503 6.56437 2.56396 11.5 2.56396C11.5366 2.56396 11.5737 2.56396 11.6103 2.5649C12.7284 2.57805 13.7972 2.79725 14.7805 3.18543C15.4457 3.44829 16.0718 3.78813 16.6478 4.19462C17.066 4.49033 17.4575 4.82031 17.8184 5.18127Z" fill="#FFBD00"/>
<path d="M20.436 11.5002C20.436 16.4353 16.4349 20.4364 11.4998 20.4364C11.3304 20.4364 11.1623 20.4317 10.9952 20.4223C15.6957 20.1608 19.4264 16.2659 19.4264 11.5002C19.4264 6.73448 15.6957 2.8395 10.9952 2.57805C11.1623 2.56866 11.3304 2.56396 11.4998 2.56396C16.4349 2.56396 20.436 6.56503 20.436 11.5002Z" fill="#F68E00"/>
<path d="M11.2056 10.8135V7.19449C11.7696 7.50565 12.1527 8.10618 12.1527 8.79464C12.1527 9.28026 12.5463 9.67394 13.032 9.67394C13.5176 9.67394 13.9113 9.28026 13.9113 8.79464C13.9113 7.12122 12.7586 5.71221 11.2056 5.31915V4.60343C11.2056 4.1178 10.8119 3.72412 10.3263 3.72412C9.84068 3.72412 9.44701 4.1178 9.44701 4.60343V5.3191C7.89404 5.71221 6.74136 7.12117 6.74136 8.79459C6.74136 9.79377 7.03483 10.573 7.6385 11.1766C8.07865 11.6168 8.66332 11.9425 9.44701 12.1813V15.806C8.88299 15.4948 8.49997 14.8943 8.49997 14.2059C8.49997 13.7202 8.1063 13.3266 7.62067 13.3266C7.13504 13.3266 6.74136 13.7202 6.74136 14.2059C6.74136 15.8793 7.89404 17.2883 9.44701 17.6814V18.397C9.44701 18.8827 9.84068 19.2763 10.3263 19.2763C10.8119 19.2763 11.2056 18.8827 11.2056 18.397V17.6814C12.7586 17.2883 13.9113 15.8793 13.9113 14.2059C13.9113 13.2205 13.6052 12.4149 13.0017 11.8114C12.563 11.3727 11.9711 11.0438 11.2056 10.8135ZM8.88205 9.93314C8.70416 9.75528 8.50002 9.46511 8.50002 8.79459C8.50002 8.10614 8.88304 7.50565 9.44706 7.19445V10.3072C9.20987 10.1974 9.02212 10.0732 8.88205 9.93314ZM11.2056 15.806V12.6836C11.9698 13.0394 12.1527 13.5486 12.1527 14.2059C12.1527 14.8943 11.7696 15.4948 11.2056 15.806Z" fill="#F68E00"/>
<path d="M12.3791 10.8135V7.19449C12.9432 7.50565 13.3262 8.10618 13.3262 8.79464C13.3262 9.28026 13.7199 9.67394 14.2055 9.67394C14.6911 9.67394 15.0848 9.28026 15.0848 8.79464C15.0848 7.12122 13.9321 5.71221 12.3791 5.31915V4.60343C12.3791 4.1178 11.9855 3.72412 11.4998 3.72412C11.0142 3.72412 10.6205 4.1178 10.6205 4.60343V5.3191C9.06756 5.71221 7.91489 7.12117 7.91489 8.79459C7.91489 9.79377 8.20835 10.573 8.81203 11.1766C9.25217 11.6168 9.83684 11.9425 10.6205 12.1813V15.806C10.0565 15.4948 9.67349 14.8943 9.67349 14.2059C9.67349 13.7202 9.27982 13.3266 8.79419 13.3266C8.30856 13.3266 7.91489 13.7202 7.91489 14.2059C7.91489 15.8793 9.06756 17.2883 10.6205 17.6814V18.397C10.6205 18.8827 11.0142 19.2763 11.4998 19.2763C11.9855 19.2763 12.3791 18.8827 12.3791 18.397V17.6814C13.9321 17.2883 15.0848 15.8793 15.0848 14.2059C15.0848 13.2205 14.7787 12.4149 14.1752 11.8114C13.7366 11.3727 13.1446 11.0438 12.3791 10.8135ZM10.0555 9.93314C9.87763 9.75528 9.67349 9.46511 9.67349 8.79459C9.67349 8.10614 10.0565 7.50565 10.6205 7.19445V10.3072C10.3834 10.1974 10.1956 10.0732 10.0555 9.93314ZM12.3791 15.806V12.6836C13.1433 13.0394 13.3262 13.5486 13.3262 14.2059C13.3261 14.8943 12.9432 15.4948 12.3791 15.806Z" fill="#FFEA94"/>
</svg>
