<svg width="21" height="25" viewBox="0 0 21 25" fill="none" xmlns="http://www.w3.org/2000/svg">
<path d="M5.57595 11.283C6.69014 13.7418 9.07553 14.8121 10.2595 14.8121C11.038 14.8121 12.3359 14.349 13.4504 13.3331C13.0429 13.3616 12.6074 13.376 12.142 13.376C12.0328 13.376 11.9182 13.375 11.7958 13.3731C11.5611 13.5538 11.2705 13.6556 10.9689 13.6556H9.97732C9.23003 13.6556 8.6221 13.0477 8.6221 12.3004C8.6221 11.5531 9.23003 10.9452 9.97732 10.9452H10.9689C11.3272 10.9452 11.6622 11.0848 11.9107 11.3256C11.9933 11.3266 12.0747 11.327 12.1545 11.327C13.4347 11.327 14.2783 11.2095 14.8301 11.0679C14.7585 10.8937 14.7195 10.7032 14.7195 10.5042V7.06805C14.7195 6.7106 14.8522 6.36796 15.0816 6.10326C14.9592 5.15031 14.737 4.42278 14.4054 3.88612C13.7221 2.78019 12.4047 2.26514 10.2595 2.26514C8.47996 2.26514 7.25107 2.63455 6.50272 3.39447C5.92262 3.98356 5.58646 4.82413 5.42932 6.09361C5.66387 6.3593 5.79953 6.70544 5.79953 7.06805V10.5042C5.79959 10.7901 5.71742 11.0569 5.57595 11.283Z" fill="white"/>
<path d="M3.13782 11.3154H4.32738C4.7752 11.3154 5.13853 10.9522 5.13853 10.5041V7.06802C5.13853 6.76868 4.97597 6.50788 4.7348 6.36734C5.00043 3.5537 6.08619 1.60396 10.2596 1.60396C12.6562 1.60396 14.1524 2.21877 14.9679 3.53862C15.4424 4.30667 15.6707 5.2987 15.7773 6.37157C15.54 6.51311 15.3806 6.77159 15.3806 7.06796V10.5041C15.3806 10.8903 15.6509 11.2129 16.0124 11.2947C15.4881 11.6376 14.4024 11.9879 12.1546 11.9879C11.9725 11.9879 11.7827 11.9856 11.585 11.9809C11.4693 11.7584 11.2372 11.6062 10.969 11.6062H9.97747C9.59417 11.6062 9.28333 11.9169 9.28333 12.3003C9.28333 12.6837 9.59417 12.9944 9.97747 12.9944H10.969C11.2007 12.9944 11.4053 12.8805 11.5313 12.7062C11.7401 12.7115 11.9445 12.7148 12.1421 12.7148C14.6759 12.7147 16.2866 12.2823 16.939 11.4242C16.9667 11.3877 16.992 11.3513 17.0151 11.3154H17.3816C17.8294 11.3154 18.1927 10.9522 18.1927 10.5041V7.06802C18.1927 6.62007 17.8295 6.25687 17.3816 6.25687H16.9341C16.8083 4.96062 16.5292 3.85713 15.9553 2.92844C14.9221 1.25623 13.0589 0.443359 10.2596 0.443359C7.45999 0.443359 5.59699 1.25623 4.56378 2.92851C3.98989 3.8572 3.71098 4.96055 3.58504 6.25694H3.13776C2.68974 6.25694 2.32654 6.62007 2.32654 7.06809V10.5042C2.32654 10.9522 2.6898 11.3154 3.13782 11.3154Z" fill="white"/>
<path d="M20.0666 21.4195C19.7969 19.7425 19.2416 17.5824 18.128 16.8149C17.3687 16.2912 14.7178 14.8748 13.5858 14.2701L13.562 14.2574C13.4324 14.1882 13.2744 14.202 13.1589 14.2927C12.565 14.7588 11.9149 15.0728 11.2266 15.226C11.105 15.253 11.0051 15.3396 10.9609 15.4561L10.2595 17.3045L9.5582 15.4561C9.51397 15.3395 9.41408 15.253 9.29244 15.226C8.60419 15.0728 7.95394 14.7588 7.36003 14.2927C7.2446 14.202 7.08647 14.1881 6.95696 14.2574C5.83761 14.8554 3.15235 16.3015 2.39422 16.8126C1.11178 17.6766 0.551714 20.8019 0.452485 21.4196C0.442635 21.4809 0.448321 21.5435 0.469013 21.602C0.514892 21.7315 1.69123 24.774 10.2595 24.774C18.8276 24.774 20.0041 21.7315 20.05 21.602C20.0708 21.5435 20.0764 21.4807 20.0666 21.4195ZM16.0771 19.4938H12.6835V18.7791H16.0771V19.4938Z" fill="white"/>
</svg>
