<svg width="47" height="47" viewBox="0 0 47 47" fill="none" xmlns="http://www.w3.org/2000/svg">
<path fill-rule="evenodd" clip-rule="evenodd" d="M31.0678 18.3223V23.5082C26.4114 19.7801 19.7922 19.7801 15.1357 23.5082V18.3223C15.1357 15.2427 17.6323 12.7461 20.712 12.7461H25.4916C28.5713 12.7461 31.0678 15.2427 31.0678 18.3223Z" fill="#945BA4"/>
<path d="M23.1013 12.7457C26.621 12.7457 29.4742 9.89245 29.4742 6.37283C29.4742 2.85321 26.621 0 23.1013 0C19.5817 0 16.7285 2.85321 16.7285 6.37283C16.7285 9.89245 19.5817 12.7457 23.1013 12.7457Z" fill="#FCD6AC"/>
<path fill-rule="evenodd" clip-rule="evenodd" d="M15.1355 19.437V23.5076C14.2261 24.235 13.4218 25.0848 12.7457 26.0329C12.1746 26.8212 11.6987 27.6741 11.3277 28.574C10.6814 30.1207 10.3509 31.781 10.3559 33.4572C10.3559 33.7281 10.3638 33.9909 10.3798 34.2538H4.77963C3.02163 34.2494 1.59759 32.8254 1.59321 31.0674V31.0276C0.665829 30.8383 -0.000193135 30.0224 4.20115e-08 29.0759V22.3048C4.20115e-08 19.2251 2.49656 16.7285 5.57623 16.7285H10.3559C12.3151 16.7258 14.131 17.7548 15.1355 19.437Z" fill="#FF5364"/>
<path d="M7.96609 16.7291C11.4857 16.7291 14.3389 13.8759 14.3389 10.3562C14.3389 6.83661 11.4857 3.9834 7.96609 3.9834C4.44648 3.9834 1.59326 6.83661 1.59326 10.3562C1.59326 13.8759 4.44648 16.7291 7.96609 16.7291Z" fill="#FCD6AC"/>
<path fill-rule="evenodd" clip-rule="evenodd" d="M46.2029 22.3048V29.0759C46.2031 30.0224 45.537 30.8383 44.6097 31.0276V31.0674C44.6053 32.8254 43.1812 34.2494 41.4232 34.2538H35.8231C35.839 33.9909 35.847 33.7281 35.847 33.4572C35.8519 31.781 35.5215 30.1207 34.8752 28.574C34.5042 27.6741 34.0282 26.8212 33.4572 26.0329C32.7789 25.0865 31.9749 24.237 31.0674 23.5076V19.437C32.0718 17.7548 33.8878 16.7258 35.847 16.7285H40.6266C43.7063 16.7285 46.2029 19.2251 46.2029 22.3048Z" fill="#F2D45B"/>
<path d="M38.2371 16.7291C41.7567 16.7291 44.6099 13.8759 44.6099 10.3562C44.6099 6.83661 41.7567 3.9834 38.2371 3.9834C34.7175 3.9834 31.8643 6.83661 31.8643 10.3562C31.8643 13.8759 34.7175 16.7291 38.2371 16.7291Z" fill="#FCD6AC"/>
<path fill-rule="evenodd" clip-rule="evenodd" d="M19.1184 22.9421C18.6784 22.9421 18.3218 22.5854 18.3218 22.1455V19.1184C18.3218 18.6784 18.6784 18.3218 19.1184 18.3218C19.5583 18.3218 19.915 18.6784 19.915 19.1184V22.1455C19.915 22.5854 19.5583 22.9421 19.1184 22.9421Z" fill="#884B9C"/>
<path fill-rule="evenodd" clip-rule="evenodd" d="M27.0842 22.9421C26.6442 22.9421 26.2876 22.5854 26.2876 22.1455V19.1184C26.2876 18.6784 26.6442 18.3218 27.0842 18.3218C27.5242 18.3218 27.8808 18.6784 27.8808 19.1184V22.1455C27.8808 22.5854 27.5242 22.9421 27.0842 22.9421Z" fill="#884B9C"/>
<path fill-rule="evenodd" clip-rule="evenodd" d="M4.77968 23.1018V29.8729C4.77864 30.6126 4.48679 31.3221 3.96714 31.8485C3.44901 32.361 2.75214 32.6523 2.02343 32.661C1.74223 32.1771 1.59384 31.6275 1.59326 31.0678V31.028C1.64408 31.0289 1.69472 31.0343 1.74462 31.0439C2.13987 31.1191 2.547 30.9973 2.83596 30.7173C3.06012 30.4934 3.18619 30.1897 3.18647 29.8729V23.1018C3.18647 22.6618 3.54312 22.3052 3.98307 22.3052C4.42303 22.3052 4.77968 22.6618 4.77968 23.1018Z" fill="#DE4D60"/>
<path fill-rule="evenodd" clip-rule="evenodd" d="M11.9489 28.8772C11.509 28.8772 11.1523 28.5205 11.1523 28.0806V23.1018C11.1523 22.6618 11.509 22.3052 11.9489 22.3052C12.3889 22.3052 12.7456 22.6618 12.7456 23.1018V28.0806C12.7456 28.5205 12.3889 28.8772 11.9489 28.8772Z" fill="#DE4D60"/>
<path fill-rule="evenodd" clip-rule="evenodd" d="M44.6098 31.028V31.0678C44.6092 31.6275 44.4608 32.1771 44.1796 32.661C42.6491 32.6509 41.4159 31.4034 41.4234 29.8729V23.1018C41.4234 22.6618 41.78 22.3052 42.22 22.3052C42.6599 22.3052 43.0166 22.6618 43.0166 23.1018V29.8729C43.0169 30.1897 43.1429 30.4934 43.3671 30.7173C43.658 30.9939 44.0634 31.1152 44.4584 31.0439C44.5084 31.0347 44.559 31.0294 44.6098 31.028Z" fill="#EFC319"/>
<path fill-rule="evenodd" clip-rule="evenodd" d="M34.2541 28.8772C33.8142 28.8772 33.4575 28.5205 33.4575 28.0806V23.1018C33.4575 22.6618 33.8142 22.3052 34.2541 22.3052C34.6941 22.3052 35.0507 22.6618 35.0507 23.1018V28.0806C35.0507 28.5205 34.6941 28.8772 34.2541 28.8772Z" fill="#EFC319"/>
<path fill-rule="evenodd" clip-rule="evenodd" d="M35.8473 33.4576C35.8473 33.7284 35.8393 33.9913 35.8234 34.2542C35.4111 40.9778 29.8379 46.2197 23.1016 46.2197C16.3653 46.2197 10.7922 40.9778 10.3799 34.2542C10.3639 33.9913 10.356 33.7284 10.356 33.4576C10.356 26.4183 16.0624 20.7119 23.1016 20.7119C30.1409 20.7119 35.8473 26.4183 35.8473 33.4576Z" fill="#4481C2"/>
<path d="M23.1014 47.0001C15.9539 46.9915 10.0401 41.4367 9.58457 34.3038C9.56784 34.025 9.55908 33.7462 9.55908 33.4578C9.55908 25.9786 15.6222 19.9155 23.1014 19.9155C30.5805 19.9155 36.6436 25.9786 36.6436 33.4578C36.6436 33.7454 36.6349 34.025 36.6181 34.3038C36.1626 41.4367 30.2488 46.9915 23.1014 47.0001ZM23.1014 21.5087C16.5021 21.5087 11.1523 26.8585 11.1523 33.4578C11.1523 33.7111 11.1595 33.9581 11.1746 34.205C11.5603 40.5091 16.7855 45.4243 23.1014 45.4243C29.4172 45.4243 34.6424 40.5091 35.0281 34.205C35.0432 33.9581 35.0504 33.7111 35.0504 33.4578C35.0504 26.8585 29.7006 21.5087 23.1014 21.5087Z" fill="#EBEFF0"/>
<g clip-path="url(#clip0_122_654)">
<path d="M29.7664 38.6601L26.6358 35.5293C27.1678 34.6825 27.4765 33.6816 27.4765 32.6075C27.4765 29.5686 25.013 27.1055 21.9742 27.1055C18.9355 27.1055 16.4722 29.5686 16.4722 32.6075C16.4722 35.6465 18.9353 38.1094 21.9742 38.1094C23.1431 38.1094 24.2259 37.744 25.1168 37.123L28.2101 40.2165C28.4251 40.4312 28.7068 40.5382 28.9883 40.5382C29.27 40.5382 29.5515 40.4312 29.7668 40.2165C30.1963 39.7865 30.1963 39.09 29.7664 38.6601ZM21.9742 36.3268C19.9203 36.3268 18.2551 34.6618 18.2551 32.6077C18.2551 30.5537 19.9203 28.8885 21.9742 28.8885C24.0282 28.8885 25.6933 30.5537 25.6933 32.6077C25.6933 34.6618 24.0282 36.3268 21.9742 36.3268Z" fill="white"/>
</g>
<defs>
<clipPath id="clip0_122_654">
<rect width="13.6167" height="13.6167" fill="white" transform="translate(16.4722 27.0137)"/>
</clipPath>
</defs>
</svg>
