<svg width="25" height="25" viewBox="0 0 25 25" fill="none" xmlns="http://www.w3.org/2000/svg">
<rect width="25" height="24" rx="1" fill="#333333"/>
<path d="M12.6246 5.56232C13.8559 5.56232 14.9688 6.08444 15.7739 6.97204C16.5553 7.85963 17.0525 9.0866 17.0525 10.418C17.0525 11.7755 16.5553 13.0025 15.7739 13.864C14.9688 14.7516 13.8559 15.2998 12.6246 15.2998C11.417 15.2998 10.3041 14.7516 9.49899 13.864C8.71759 13.0025 8.22034 11.7755 8.22034 10.418C8.22034 9.0866 8.71759 7.85963 9.49899 6.97204C10.3041 6.08444 11.417 5.56232 12.6246 5.56232Z" fill="white"/>
<path d="M12.6246 15.6376C14.7557 15.6376 16.65 16.5774 18.0234 18.0915C19.4204 19.6318 20.2729 21.7202 20.2729 24.0436C20.2729 24.2003 20.1545 24.3047 20.0361 24.3047H5.23679C5.09472 24.3047 5 24.2003 5 24.0436C5 21.7202 5.85244 19.6318 7.22581 18.0915C8.62286 16.5774 10.5172 15.6376 12.6246 15.6376Z" fill="white"/>
</svg>
