<svg width="20" height="20" viewBox="0 0 20 20" fill="none" xmlns="http://www.w3.org/2000/svg">
<path d="M4.6445 3.63169L12.5676 1.46901L12.148 0.620896C11.8735 0.069625 11.204 -0.158026 10.6527 0.116494L3.55981 3.63169H4.6445Z" fill="white"/>
<path d="M15.0272 1.53174C14.929 1.53174 14.8308 1.54513 14.7326 1.57191L12.8712 2.08078L7.18665 3.63193H13.639H16.4511L16.103 2.3553C15.969 1.85759 15.5182 1.53174 15.0272 1.53174Z" fill="white"/>
<path d="M17.6139 4.41284H17.3595H17.0135H16.6676H14.0273H4.32536H3.05319H1.9819H1.78326H1.11817C0.76553 4.41284 0.450837 4.57577 0.245505 4.83243C0.151767 4.95072 0.0803472 5.08687 0.0401736 5.2364C0.0156231 5.33014 0 5.42834 0 5.52878V5.66269V6.93485V17.9625C0 18.5785 0.499938 19.0784 1.11593 19.0784H17.6117C18.2277 19.0784 18.7276 18.5785 18.7276 17.9625V14.8491H12.1056C11.0589 14.8491 10.2086 13.9987 10.2086 12.952V11.9298V11.5838V11.2379V10.4701C10.2086 9.9568 10.4139 9.49036 10.7464 9.14889C11.041 8.84533 11.4361 8.64 11.878 8.58867C11.9516 8.57976 12.0275 8.57527 12.1034 8.57527H17.7991H18.1451H18.491H18.7276V5.52878C18.7298 4.91278 18.2299 4.41284 17.6139 4.41284Z" fill="white"/>
<path d="M19.511 9.64221C19.3994 9.53954 19.2677 9.46142 19.1204 9.41009C19.0066 9.37217 18.8861 9.34985 18.7589 9.34985H18.7299H18.7075H18.3616H17.114H12.1057C11.4897 9.34985 10.9897 9.84977 10.9897 10.4658V11.0215V11.3674V11.7134V12.9498C10.9897 13.5658 11.4897 14.0658 12.1057 14.0658H18.7299H18.7589C18.8861 14.0658 19.0066 14.0434 19.1204 14.0055C19.2677 13.9564 19.3994 13.8761 19.511 13.7734C19.7342 13.5703 19.8748 13.2757 19.8748 12.9499V10.4658C19.8748 10.1399 19.7342 9.84528 19.511 9.64221ZM14.4357 11.9299C14.4357 12.2379 14.1858 12.4878 13.8778 12.4878H13.5073C13.1993 12.4878 12.9493 12.2379 12.9493 11.9299V11.5594C12.9493 11.3808 13.0319 11.2223 13.1636 11.1219C13.2596 11.0483 13.3779 11.0014 13.5073 11.0014H13.601H13.8778C14.1858 11.0014 14.4357 11.2514 14.4357 11.5594V11.9299Z" fill="white"/>
</svg>
