<svg width="24" height="24" viewBox="0 0 24 24" fill="none" xmlns="http://www.w3.org/2000/svg">
<path d="M24 11.9998V15.4837C23.9994 15.6888 23.9177 15.8854 23.7726 16.0304C23.6275 16.1755 23.431 16.2572 23.2258 16.2578H17.8065C17.6013 16.2572 17.4048 16.1755 17.2597 16.0304C17.1147 15.8854 17.0329 15.6888 17.0323 15.4837V13.1611C17.0329 12.9559 17.1147 12.7594 17.2597 12.6143C17.4048 12.4693 17.6013 12.3875 17.8065 12.3869H22.4516V11.2256H23.2258C23.431 11.2262 23.6275 11.308 23.7726 11.453C23.9177 11.5981 23.9994 11.7946 24 11.9998ZM19.742 14.3224C19.742 14.1692 19.6966 14.0196 19.6115 13.8922C19.5264 13.7649 19.4055 13.6657 19.264 13.6071C19.1226 13.5485 18.9669 13.5332 18.8167 13.563C18.6666 13.5929 18.5286 13.6667 18.4203 13.7749C18.3121 13.8832 18.2383 14.0211 18.2085 14.1713C18.1786 14.3215 18.1939 14.4772 18.2525 14.6186C18.3111 14.7601 18.4103 14.881 18.5377 14.9661C18.665 15.0512 18.8147 15.0966 18.9678 15.0966C19.1729 15.0959 19.3695 15.0142 19.5145 14.8691C19.6596 14.7241 19.7414 14.5275 19.742 14.3224Z" fill="#E03E3E"/>
<path d="M20.7639 0L24 9.20517L22.4517 9.75872V7.35484C22.451 7.1497 22.3693 6.95314 22.2242 6.80808C22.0792 6.66303 21.8826 6.58126 21.6775 6.58065H21.0388L19.9471 3.47613C19.7619 3.54214 19.5654 3.57084 19.369 3.56061C19.1726 3.55037 18.9802 3.50138 18.8028 3.41647C18.6255 3.33156 18.4666 3.2124 18.3355 3.06585C18.2044 2.91931 18.1035 2.74827 18.0387 2.56258L6.76648 6.56517V6.58065H3.4839C3.38794 6.58077 3.29213 6.573 3.19745 6.55742L3.0968 6.27871L16.2736 1.59484L20.7639 0Z" fill="#36CE94"/>
<path d="M1.5871 5.02119C1.66404 5.41224 1.86014 5.76989 2.14846 6.04504C2.43678 6.3202 2.8032 6.49937 3.19742 6.55796C3.29211 6.57354 3.38791 6.58131 3.48387 6.58119H21.6774C21.8826 6.5818 22.0791 6.66356 22.2242 6.80862C22.3693 6.95368 22.451 7.15024 22.4516 7.35538V12.3876H17.8065C17.6013 12.3883 17.4048 12.47 17.2597 12.6151C17.1146 12.7601 17.0329 12.9567 17.0323 13.1618V15.4844C17.0329 15.6896 17.1146 15.8861 17.2597 16.0312C17.4048 16.1762 17.6013 16.258 17.8065 16.2586H22.4516V20.5167C22.4516 20.9851 21.7587 21.678 20.9032 21.678H15.4839V15.4844C15.4833 15.2793 15.4015 15.0827 15.2565 14.9377C15.1114 14.7926 14.9148 14.7108 14.7097 14.7102H2.32258C2.11744 14.7108 1.92088 14.7926 1.77582 14.9377C1.63076 15.0827 1.549 15.2793 1.54839 15.4844V21.678C1.13773 21.678 0.743892 21.5148 0.453512 21.2245C0.163133 20.9341 0 20.5402 0 20.1296V5.0328C0 4.41681 0.2447 3.82605 0.680269 3.39049C1.11584 2.95492 1.7066 2.71022 2.32258 2.71022H3.56516C3.07397 2.70234 2.59719 2.87622 2.22637 3.19845C1.85556 3.52067 1.61687 3.96854 1.55613 4.45603C1.53701 4.64488 1.54746 4.83555 1.5871 5.02119Z" fill="#FEBD55"/>
<path d="M19.9471 3.47654L21.0387 6.58106H6.76648V6.56557L18.0387 2.56299C18.1035 2.74867 18.2044 2.91971 18.3355 3.06626C18.4666 3.21281 18.6255 3.33196 18.8028 3.41688C18.9802 3.50179 19.1726 3.55077 19.369 3.56101C19.5654 3.57125 19.7619 3.54254 19.9471 3.47654Z" fill="#2FB380"/>
<path d="M18.9678 15.0972C19.3954 15.0972 19.742 14.7506 19.742 14.323C19.742 13.8954 19.3954 13.5488 18.9678 13.5488C18.5402 13.5488 18.1936 13.8954 18.1936 14.323C18.1936 14.7506 18.5402 15.0972 18.9678 15.0972Z" fill="#2B2B37"/>
<path d="M7.98194 2.70968L15.4839 0L16.2581 1.54839L16.2736 1.59484L3.09678 6.27871L3.19742 6.55743C2.8032 6.49883 2.43678 6.31966 2.14846 6.0445C1.86014 5.76935 1.66404 5.4117 1.5871 5.02065L7.98194 2.70968Z" fill="#2FB380"/>
<path d="M7.98197 2.71022L1.58713 5.02119C1.54749 4.83555 1.53704 4.64488 1.55616 4.45603C1.61689 3.96854 1.85559 3.52067 2.2264 3.19845C2.59721 2.87622 3.074 2.70234 3.56519 2.71022H7.98197Z" fill="#BD6F08"/>
<path d="M15.484 21.6777V23.2261C15.4833 23.4313 15.4016 23.6278 15.2565 23.7729C15.1115 23.9179 14.9149 23.9997 14.7098 24.0003H2.32266C2.11752 23.9997 1.92095 23.9179 1.77589 23.7729C1.63084 23.6278 1.54907 23.4313 1.54846 23.2261V18.1938H15.484V21.6777Z" fill="#FF6161"/>
<path d="M15.484 17.0322V18.1935H15.0969H1.93556H1.54846V17.0322H1.93556H15.0969H15.484Z" fill="#EDF4FA"/>
<path d="M15.484 15.4842V17.0325H1.54846V15.4842C1.54907 15.279 1.63084 15.0825 1.77589 14.9374C1.92095 14.7923 2.11752 14.7106 2.32266 14.71H14.7098C14.9149 14.7106 15.1115 14.7923 15.2565 14.9374C15.4016 15.0825 15.4833 15.279 15.484 15.4842Z" fill="#CB3541"/>
<path d="M14.7098 22.839H10.4517C9.01179 22.8381 7.60755 22.391 6.43226 21.5591C5.25696 20.7273 4.36839 19.5516 3.88885 18.1938H1.54846V23.2261C1.54907 23.4313 1.63084 23.6278 1.77589 23.7729C1.92095 23.9179 2.11752 23.9997 2.32266 24.0003H14.7098C14.9149 23.9997 15.1115 23.9179 15.2565 23.7729C15.4016 23.6278 15.4833 23.4313 15.484 23.2261V22.0648C15.484 22.2701 15.4024 22.4671 15.2572 22.6123C15.112 22.7574 14.9151 22.839 14.7098 22.839Z" fill="#E03E3E"/>
<path d="M3.88885 18.1935C3.75529 17.8158 3.65478 17.4273 3.58846 17.0322H1.54846V18.1935H3.88885Z" fill="#C1CFE8"/>
<path d="M3.58846 17.0325C3.5214 16.649 3.48644 16.2606 3.48395 15.8713V14.71H2.32266C2.11752 14.7106 1.92095 14.7923 1.77589 14.9374C1.63084 15.0825 1.54907 15.279 1.54846 15.4842V17.0325H3.58846Z" fill="#A81E29"/>
<path d="M16.2581 1.54808L15.9438 0.919434L4.18762 5.16473C3.9988 5.2329 3.79089 5.22507 3.60774 5.14288C3.42459 5.06069 3.28053 4.91058 3.20594 4.72421L3.1049 4.47182L1.5871 5.02034C1.66404 5.41139 1.86014 5.76904 2.14846 6.0442C2.43678 6.31935 2.8032 6.49852 3.19742 6.55712L3.09678 6.27841L16.2736 1.59453L16.2581 1.54808Z" fill="#2AA173"/>
<path d="M9.99332 5.41895H5.51422L3.0968 6.2783L3.19745 6.55701C3.29213 6.57259 3.38794 6.58036 3.4839 6.58024H6.76648V6.56475L9.99332 5.41895Z" fill="#2FB380"/>
<path d="M23.9999 9.20475L22.6691 5.41895H20.6322L21.0406 6.58024H21.6774C21.8825 6.58085 22.0791 6.66261 22.2241 6.80767C22.3692 6.95273 22.4509 7.14929 22.4516 7.35443V9.7583L23.9999 9.20475Z" fill="#2FB380"/>
<path d="M9.99332 5.41895L6.76648 6.56475V6.58024H21.0387L20.6304 5.41895H9.99332Z" fill="#2AA173"/>
<path d="M23.6129 15.4837H19.742C19.5774 15.4833 19.4148 15.4477 19.2651 15.3792C19.1154 15.3108 18.9821 15.2111 18.8741 15.0869C18.6864 15.0653 18.5133 14.9755 18.3876 14.8345C18.2619 14.6935 18.1924 14.5112 18.1924 14.3224C18.1924 14.1335 18.2619 13.9512 18.3876 13.8102C18.5133 13.6692 18.6864 13.5794 18.8741 13.5578C18.9821 13.4336 19.1154 13.3339 19.2651 13.2655C19.4148 13.1971 19.5774 13.1615 19.742 13.1611H22.4516C22.657 13.1611 22.8539 13.0795 22.9991 12.9343C23.1443 12.7891 23.2258 12.5922 23.2258 12.3869V11.2256H22.4516V12.3869H17.8065C17.6013 12.3875 17.4048 12.4693 17.2597 12.6143C17.1147 12.7594 17.0329 12.9559 17.0323 13.1611V15.4837C17.0329 15.6888 17.1147 15.8854 17.2597 16.0304C17.4048 16.1755 17.6013 16.2572 17.8065 16.2578H23.2258C23.431 16.2572 23.6275 16.1755 23.7726 16.0304C23.9177 15.8854 23.9994 15.6888 24 15.4837V15.0966C24 15.1992 23.9593 15.2977 23.8867 15.3703C23.8141 15.4429 23.7156 15.4837 23.6129 15.4837Z" fill="#CB3541"/>
<path d="M18.1936 17.4197H22.4516V16.2584H17.8065C17.6701 16.2576 17.5365 16.2203 17.4194 16.1504V16.6455C17.4194 16.8508 17.5009 17.0477 17.6461 17.1929C17.7913 17.3381 17.9882 17.4197 18.1936 17.4197Z" fill="#FC9E20"/>
<path d="M1.54839 17.0328V15.4844C1.549 15.2793 1.63076 15.0827 1.77582 14.9377C1.92088 14.7926 2.11744 14.7108 2.32258 14.7102H3.09678V6.53474C2.72379 6.45974 2.38137 6.27598 2.1127 6.00661C1.84403 5.73725 1.66114 5.39436 1.5871 5.02119C1.54746 4.83555 1.53701 4.64488 1.55613 4.45603C1.61687 3.96854 1.85556 3.52067 2.22637 3.19845C2.59719 2.87622 3.07397 2.70234 3.56516 2.71022H2.32258C1.7066 2.71022 1.11584 2.95492 0.680269 3.39049C0.2447 3.82605 0 4.41681 0 5.0328V20.1296C0 20.5402 0.163133 20.9341 0.453512 21.2245C0.743892 21.5148 1.13773 21.678 1.54839 21.678V17.0328Z" fill="#FC9E20"/>
<path d="M21.2903 20.1287H18.1936C17.7829 20.1287 17.3891 19.9655 17.0987 19.6752C16.8083 19.3848 16.6452 18.9909 16.6452 18.5803V16.6448C16.6452 16.4395 16.5636 16.2426 16.4184 16.0974C16.2732 15.9522 16.0763 15.8706 15.871 15.8706H15.4839V21.6771H20.9032C21.7587 21.6771 22.4516 20.9842 22.4516 20.5158V18.9674C22.4516 19.2754 22.3293 19.5708 22.1115 19.7885C21.8937 20.0063 21.5983 20.1287 21.2903 20.1287Z" fill="#FC9E20"/>
</svg>
