<svg width="19" height="17" viewBox="0 0 19 17" fill="none" xmlns="http://www.w3.org/2000/svg">
<path d="M17.6639 13.0248L11.2854 1.28984C10.799 0.486349 9.95326 0 9.01232 0C8.07138 0 7.22564 0.486349 6.73929 1.28984C6.73929 1.30033 6.7288 1.30033 6.7288 1.31097L0.371408 13.0037C-0.11487 13.8389 -0.125433 14.8327 0.350284 15.6679C0.826 16.5031 1.6823 17 2.6444 17H15.3802C16.3423 17 17.1986 16.5031 17.6743 15.6679C18.1501 14.8327 18.1396 13.8389 17.6639 13.0248Z" fill="#FEA832"/>
<path d="M2.64417 15.9427C2.05879 15.9427 1.55807 15.6515 1.26899 15.1446C0.979903 14.6372 0.985043 14.0503 1.2855 13.5351L7.59476 1.93156L7.7909 1.73078L7.79192 1.62907C8.09544 1.26717 8.53528 1.05713 9.01227 1.05713C9.57389 1.05713 10.086 1.34878 10.3813 1.83714L16.734 13.5279C17.0396 14.0513 17.0406 14.6444 16.7557 15.1446C16.4666 15.6516 15.9659 15.9427 15.3805 15.9427H2.64417Z" fill="#FEDB41"/>
<path d="M17.6744 15.6678C17.1987 16.5029 16.3423 16.9999 15.3802 16.9999H9.01233V0C9.95324 0 10.799 0.486349 11.2854 1.28984L17.6639 13.0248C18.1396 13.8388 18.1501 14.8326 17.6744 15.6678Z" fill="#FE9923"/>
<path d="M15.3805 15.9427C15.9659 15.9427 16.4666 15.6516 16.7557 15.1447C17.0406 14.6445 17.0396 14.0514 16.734 13.5279L10.3813 1.83714C10.086 1.34882 9.57392 1.05713 9.01227 1.05713V15.9427L15.3805 15.9427Z" fill="#FFCC33"/>
<path d="M10.0695 5.37067V9.59952C10.0695 10.181 9.59378 10.6567 9.01233 10.6567C8.43089 10.6567 7.95514 10.181 7.95514 9.59952V5.37067C7.95514 4.78919 8.43089 4.31348 9.01233 4.31348C9.59378 4.31348 10.0695 4.78919 10.0695 5.37067Z" fill="#495A79"/>
<path d="M10.0695 5.37067V9.59952C10.0695 10.181 9.59377 10.6567 9.01233 10.6567V4.31348C9.59374 4.31348 10.0695 4.78919 10.0695 5.37067Z" fill="#42516D"/>
<path d="M9.01234 11.7139C8.13481 11.7139 7.42651 12.4222 7.42651 13.2997C7.42651 14.1772 8.13481 14.8855 9.01234 14.8855C9.88987 14.8855 10.5982 14.1772 10.5982 13.2997C10.5982 12.4222 9.88984 11.7139 9.01234 11.7139Z" fill="#495A79"/>
<path d="M10.5982 13.2997C10.5982 14.1771 9.88986 14.8855 9.01233 14.8855V11.7139C9.88983 11.7138 10.5982 12.4222 10.5982 13.2997Z" fill="#42516D"/>
</svg>
